M48
; DRILL file {KiCad 6.0.6} date Thu 01 Sep 2022 11:31:02 PM WAT
; FORMAT={-:-/ absolute / inch / decimal}
; #@! TF.CreationDate,2022-09-01T23:31:02+01:00
; #@! TF.GenerationSoftware,Kicad,Pcbnew,6.0.6
; #@! TF.FileFunction,Plated,1,2,PTH
FMAT,2
INCH
; #@! TA.AperFunction,Plated,PTH,ComponentDrill
T1C0.0315
; #@! TA.AperFunction,Plated,PTH,ComponentDrill
T2C0.0354
; #@! TA.AperFunction,Plated,PTH,ComponentDrill
T3C0.0394
; #@! TA.AperFunction,Plated,PTH,ComponentDrill
T4C0.0433
; #@! TA.AperFunction,Plated,PTH,ComponentDrill
T5C0.0630
%
G90
G05
T1
X5.5852Y-3.2869
X5.6202Y-3.5319
X5.6202Y-3.8319
X5.6639Y-3.2869
X5.8602Y-4.7469
X5.8602Y-5.0469
X5.8752Y-3.926
X5.8752Y-4.226
T2
X5.8202Y-3.7219
X5.8202Y-4.4269
X5.9202Y-3.7219
X5.9202Y-4.4269
T3
X5.1802Y-3.3819
X5.377Y-3.3819
X6.07Y-3.2337
X6.07Y-3.3337
X6.07Y-4.9917
X6.07Y-5.0917
X6.17Y-3.2337
X6.17Y-3.3337
X6.17Y-4.9917
X6.17Y-5.0917
T4
X5.1502Y-4.2169
X5.1502Y-4.3819
X5.1552Y-4.0519
X5.1552Y-4.5469
X5.1802Y-3.7891
X5.2802Y-3.7891
X5.3802Y-3.7891
X5.5502Y-4.2169
X5.5502Y-4.3819
X5.5552Y-4.0519
X5.5552Y-4.5469
T5
X5.373Y-4.9419
X5.4911Y-5.1269
X5.6093Y-4.9419
T0
M30
