%TF.GenerationSoftware,KiCad,Pcbnew,6.0.6*%
%TF.CreationDate,2022-09-01T23:29:10+01:00*%
%TF.ProjectId,breadbored power supply,62726561-6462-46f7-9265-6420706f7765,rev?*%
%TF.SameCoordinates,Original*%
%TF.FileFunction,Copper,L2,Bot*%
%TF.FilePolarity,Positive*%
%FSLAX46Y46*%
G04 Gerber Fmt 4.6, Leading zero omitted, Abs format (unit mm)*
G04 Created by KiCad (PCBNEW 6.0.6) date 2022-09-01 23:29:10*
%MOMM*%
%LPD*%
G01*
G04 APERTURE LIST*
%TA.AperFunction,ComponentPad*%
%ADD10C,1.600000*%
%TD*%
%TA.AperFunction,ComponentPad*%
%ADD11O,1.600000X1.600000*%
%TD*%
%TA.AperFunction,ComponentPad*%
%ADD12R,2.200000X2.200000*%
%TD*%
%TA.AperFunction,ComponentPad*%
%ADD13O,2.200000X2.200000*%
%TD*%
%TA.AperFunction,ComponentPad*%
%ADD14R,1.800000X1.800000*%
%TD*%
%TA.AperFunction,ComponentPad*%
%ADD15C,1.800000*%
%TD*%
%TA.AperFunction,ComponentPad*%
%ADD16R,1.905000X2.000000*%
%TD*%
%TA.AperFunction,ComponentPad*%
%ADD17O,1.905000X2.000000*%
%TD*%
%TA.AperFunction,ComponentPad*%
%ADD18R,1.600000X1.600000*%
%TD*%
%TA.AperFunction,ComponentPad*%
%ADD19R,2.600000X2.600000*%
%TD*%
%TA.AperFunction,ComponentPad*%
%ADD20C,2.600000*%
%TD*%
%TA.AperFunction,ComponentPad*%
%ADD21R,1.700000X1.700000*%
%TD*%
%TA.AperFunction,ComponentPad*%
%ADD22O,1.700000X1.700000*%
%TD*%
%TA.AperFunction,ComponentPad*%
%ADD23R,2.000000X2.000000*%
%TD*%
%TA.AperFunction,ComponentPad*%
%ADD24C,2.000000*%
%TD*%
%TA.AperFunction,Conductor*%
%ADD25C,0.300000*%
%TD*%
%TA.AperFunction,Conductor*%
%ADD26C,0.250000*%
%TD*%
G04 APERTURE END LIST*
D10*
%TO.P,R1,1*%
%TO.N,/Vout1*%
X148848000Y-128190000D03*
D11*
%TO.P,R1,2*%
%TO.N,Net-(R1-Pad2)*%
X148848000Y-120570000D03*
%TD*%
D12*
%TO.P,D1,1,K*%
%TO.N,/Vin*%
X130814000Y-111299000D03*
D13*
%TO.P,D1,2,A*%
%TO.N,Net-(D1-Pad2)*%
X140974000Y-111299000D03*
%TD*%
D14*
%TO.P,D6,1,K*%
%TO.N,/V-*%
X147832000Y-94535000D03*
D15*
%TO.P,D6,2,A*%
%TO.N,Net-(R2-Pad2)*%
X150372000Y-94535000D03*
%TD*%
D12*
%TO.P,D3,1,K*%
%TO.N,/Vin*%
X130941000Y-115490000D03*
D13*
%TO.P,D3,2,A*%
%TO.N,Net-(D4-Pad1)*%
X141101000Y-115490000D03*
%TD*%
D12*
%TO.P,D4,1,K*%
%TO.N,Net-(D4-Pad1)*%
X130814000Y-107108000D03*
D13*
%TO.P,D4,2,A*%
%TO.N,/V-*%
X140974000Y-107108000D03*
%TD*%
D16*
%TO.P,U1,1,VI*%
%TO.N,/Vin*%
X131576000Y-96242000D03*
D17*
%TO.P,U1,2,GND*%
%TO.N,/V-*%
X134116000Y-96242000D03*
%TO.P,U1,3,VO*%
%TO.N,/Vout1*%
X136656000Y-96242000D03*
%TD*%
D18*
%TO.P,C2,1*%
%TO.N,/Vout1*%
X141863000Y-83486000D03*
D10*
%TO.P,C2,2*%
%TO.N,/V-*%
X143863000Y-83486000D03*
%TD*%
D12*
%TO.P,D2,1,K*%
%TO.N,Net-(D1-Pad2)*%
X130941000Y-102917000D03*
D13*
%TO.P,D2,2,A*%
%TO.N,/V-*%
X141101000Y-102917000D03*
%TD*%
D19*
%TO.P,J1,1*%
%TO.N,Net-(D1-Pad2)*%
X142475000Y-125523000D03*
D20*
%TO.P,J1,2*%
%TO.N,Net-(D4-Pad1)*%
X136475000Y-125523000D03*
%TO.P,J1,3*%
%TO.N,unconnected-(J1-Pad3)*%
X139475000Y-130223000D03*
%TD*%
D14*
%TO.P,D5,1,K*%
%TO.N,/V-*%
X147832000Y-112442000D03*
D15*
%TO.P,D5,2,A*%
%TO.N,Net-(R1-Pad2)*%
X150372000Y-112442000D03*
%TD*%
D21*
%TO.P,J3,1,Pin_1*%
%TO.N,/Vout2*%
X154177000Y-126788000D03*
D22*
%TO.P,J3,2,Pin_2*%
X156717000Y-126788000D03*
%TO.P,J3,3,Pin_3*%
%TO.N,/V-*%
X154177000Y-129328000D03*
%TO.P,J3,4,Pin_4*%
X156717000Y-129328000D03*
%TD*%
D23*
%TO.P,C1,1*%
%TO.N,/Vin*%
X131576000Y-85899000D03*
D24*
%TO.P,C1,2*%
%TO.N,/V-*%
X136576000Y-85899000D03*
%TD*%
D21*
%TO.P,J2,1,Pin_1*%
%TO.N,/Vout2*%
X154177000Y-82135000D03*
D22*
%TO.P,J2,2,Pin_2*%
X156717000Y-82135000D03*
%TO.P,J2,3,Pin_3*%
%TO.N,/V-*%
X154177000Y-84675000D03*
%TO.P,J2,4,Pin_4*%
X156717000Y-84675000D03*
%TD*%
D10*
%TO.P,R2,1*%
%TO.N,/Vout2*%
X142752000Y-97329000D03*
D11*
%TO.P,R2,2*%
%TO.N,Net-(R2-Pad2)*%
X142752000Y-89709000D03*
%TD*%
D18*
%TO.P,SW1,1,A*%
%TO.N,/Vout2*%
X149229000Y-99721000D03*
D11*
%TO.P,SW1,2,B*%
%TO.N,/Vout1*%
X149229000Y-107341000D03*
%TD*%
D25*
%TO.N,/Vout1*%
X151801000Y-87838000D02*
X151801000Y-105138000D01*
X149598000Y-107341000D02*
X149229000Y-107341000D01*
X151801000Y-105138000D02*
X149598000Y-107341000D01*
X151601000Y-87638000D02*
X151801000Y-87838000D01*
X141201000Y-87638000D02*
X151601000Y-87638000D01*
X136656000Y-96242000D02*
X136656000Y-92183000D01*
X136656000Y-92183000D02*
X141201000Y-87638000D01*
D26*
%TO.N,Net-(R2-Pad2)*%
X150501000Y-94406000D02*
X150372000Y-94535000D01*
X150501000Y-91138000D02*
X150501000Y-94406000D01*
X144181000Y-91138000D02*
X150501000Y-91138000D01*
X142752000Y-89709000D02*
X144181000Y-91138000D01*
D25*
%TO.N,/V-*%
X156717000Y-129328000D02*
X154177000Y-129328000D01*
X134116000Y-96242000D02*
X134116000Y-88359000D01*
X154014000Y-84838000D02*
X154177000Y-84675000D01*
X140974000Y-107108000D02*
X140974000Y-103044000D01*
X143240000Y-85899000D02*
X143863000Y-85276000D01*
X147832000Y-112442000D02*
X146308000Y-112442000D01*
X150049000Y-83486000D02*
X151401000Y-84838000D01*
X141101000Y-102917000D02*
X140791000Y-102917000D01*
X151401000Y-84838000D02*
X154014000Y-84838000D01*
X140974000Y-103044000D02*
X141101000Y-102917000D01*
X147832000Y-96186000D02*
X147832000Y-94535000D01*
X147001000Y-113273000D02*
X147001000Y-130338000D01*
X140791000Y-102917000D02*
X134116000Y-96242000D01*
X154177000Y-129328000D02*
X154091000Y-129328000D01*
X136576000Y-85899000D02*
X143240000Y-85899000D01*
X143863000Y-83486000D02*
X150049000Y-83486000D01*
X141101000Y-102917000D02*
X147832000Y-96186000D01*
X147001000Y-130338000D02*
X153167000Y-130338000D01*
X153167000Y-130338000D02*
X154177000Y-129328000D01*
X143863000Y-85276000D02*
X143863000Y-83486000D01*
X146308000Y-112442000D02*
X140974000Y-107108000D01*
X154177000Y-84675000D02*
X156717000Y-84675000D01*
X134116000Y-88359000D02*
X136576000Y-85899000D01*
X147832000Y-112442000D02*
X147001000Y-113273000D01*
%TO.N,Net-(D4-Pad1)*%
X136475000Y-125523000D02*
X136475000Y-120116000D01*
X139196000Y-115490000D02*
X130814000Y-107108000D01*
X136475000Y-120116000D02*
X141101000Y-115490000D01*
X141101000Y-115490000D02*
X139196000Y-115490000D01*
%TD*%
%TA.AperFunction,Conductor*%
%TO.N,/V-*%
G36*
X157933621Y-80331502D02*
G01*
X157980114Y-80385158D01*
X157991500Y-80437500D01*
X157991500Y-81191323D01*
X157971498Y-81259444D01*
X157917842Y-81305937D01*
X157847568Y-81316041D01*
X157782988Y-81286547D01*
X157772307Y-81276123D01*
X157650152Y-81141876D01*
X157650142Y-81141867D01*
X157646670Y-81138051D01*
X157642619Y-81134852D01*
X157642615Y-81134848D01*
X157475414Y-81002800D01*
X157475410Y-81002798D01*
X157471359Y-80999598D01*
X157275789Y-80891638D01*
X157270920Y-80889914D01*
X157270916Y-80889912D01*
X157070087Y-80818795D01*
X157070083Y-80818794D01*
X157065212Y-80817069D01*
X157060119Y-80816162D01*
X157060116Y-80816161D01*
X156850373Y-80778800D01*
X156850367Y-80778799D01*
X156845284Y-80777894D01*
X156771452Y-80776992D01*
X156627081Y-80775228D01*
X156627079Y-80775228D01*
X156621911Y-80775165D01*
X156401091Y-80808955D01*
X156188756Y-80878357D01*
X155990607Y-80981507D01*
X155986474Y-80984610D01*
X155986471Y-80984612D01*
X155816100Y-81112530D01*
X155811965Y-81115635D01*
X155755537Y-81174684D01*
X155731283Y-81200064D01*
X155669759Y-81235494D01*
X155598846Y-81232037D01*
X155541060Y-81190791D01*
X155522207Y-81157243D01*
X155480767Y-81046703D01*
X155477615Y-81038295D01*
X155390261Y-80921739D01*
X155273705Y-80834385D01*
X155137316Y-80783255D01*
X155075134Y-80776500D01*
X153278866Y-80776500D01*
X153216684Y-80783255D01*
X153080295Y-80834385D01*
X152963739Y-80921739D01*
X152876385Y-81038295D01*
X152825255Y-81174684D01*
X152818500Y-81236866D01*
X152818500Y-83033134D01*
X152825255Y-83095316D01*
X152876385Y-83231705D01*
X152963739Y-83348261D01*
X153080295Y-83435615D01*
X153088704Y-83438767D01*
X153088705Y-83438768D01*
X153197960Y-83479726D01*
X153254725Y-83522367D01*
X153279425Y-83588929D01*
X153264218Y-83658278D01*
X153244825Y-83684759D01*
X153121590Y-83813717D01*
X153115104Y-83821727D01*
X152995098Y-83997649D01*
X152990000Y-84006623D01*
X152900338Y-84199783D01*
X152896775Y-84209470D01*
X152841389Y-84409183D01*
X152842912Y-84417607D01*
X152855292Y-84421000D01*
X156845000Y-84421000D01*
X156913121Y-84441002D01*
X156959614Y-84494658D01*
X156971000Y-84547000D01*
X156971000Y-84803000D01*
X156950998Y-84871121D01*
X156897342Y-84917614D01*
X156845000Y-84929000D01*
X152860225Y-84929000D01*
X152846694Y-84932973D01*
X152845257Y-84942966D01*
X152875565Y-85077446D01*
X152878645Y-85087275D01*
X152958770Y-85284603D01*
X152963413Y-85293794D01*
X153074694Y-85475388D01*
X153080777Y-85483699D01*
X153220213Y-85644667D01*
X153227580Y-85651883D01*
X153391434Y-85787916D01*
X153399881Y-85793831D01*
X153583756Y-85901279D01*
X153593042Y-85905729D01*
X153792001Y-85981703D01*
X153801899Y-85984579D01*
X154010595Y-86027038D01*
X154021901Y-86028386D01*
X154087175Y-86056310D01*
X154126990Y-86115092D01*
X154128705Y-86186068D01*
X154091775Y-86246704D01*
X154027926Y-86277748D01*
X154006987Y-86279500D01*
X152285623Y-86279500D01*
X152284853Y-86279498D01*
X152284037Y-86279493D01*
X152207279Y-86279024D01*
X152184918Y-86285415D01*
X152178847Y-86287150D01*
X152162085Y-86290728D01*
X152132813Y-86294920D01*
X152124645Y-86298634D01*
X152124644Y-86298634D01*
X152109438Y-86305548D01*
X152091914Y-86311996D01*
X152067229Y-86319051D01*
X152059635Y-86323843D01*
X152059632Y-86323844D01*
X152042220Y-86334830D01*
X152027137Y-86342969D01*
X152000218Y-86355208D01*
X151993416Y-86361069D01*
X151980765Y-86371970D01*
X151965761Y-86383073D01*
X151944042Y-86396776D01*
X151938103Y-86403501D01*
X151938099Y-86403504D01*
X151924468Y-86418938D01*
X151912276Y-86430982D01*
X151896673Y-86444427D01*
X151896671Y-86444430D01*
X151889873Y-86450287D01*
X151884993Y-86457816D01*
X151884992Y-86457817D01*
X151875906Y-86471835D01*
X151864615Y-86486709D01*
X151853569Y-86499217D01*
X151847622Y-86505951D01*
X151835058Y-86532711D01*
X151826737Y-86547691D01*
X151815529Y-86564983D01*
X151815527Y-86564988D01*
X151810648Y-86572515D01*
X151808078Y-86581108D01*
X151808076Y-86581113D01*
X151803289Y-86597120D01*
X151796628Y-86614564D01*
X151785719Y-86637800D01*
X151784338Y-86646667D01*
X151784338Y-86646668D01*
X151781170Y-86667015D01*
X151777387Y-86683732D01*
X151771485Y-86703466D01*
X151771484Y-86703472D01*
X151768914Y-86712066D01*
X151768859Y-86721037D01*
X151768859Y-86721038D01*
X151768704Y-86746497D01*
X151768671Y-86747289D01*
X151768500Y-86748386D01*
X151768500Y-86779377D01*
X151768498Y-86780147D01*
X151768065Y-86850996D01*
X151747647Y-86918993D01*
X151693708Y-86965157D01*
X151637709Y-86972606D01*
X151637600Y-86976083D01*
X151629677Y-86975834D01*
X151621848Y-86974594D01*
X151575859Y-86978941D01*
X151564004Y-86979500D01*
X141283059Y-86979500D01*
X141271203Y-86978941D01*
X141263463Y-86977211D01*
X141255537Y-86977460D01*
X141255536Y-86977460D01*
X141192611Y-86979438D01*
X141188653Y-86979500D01*
X141159568Y-86979500D01*
X141155637Y-86979997D01*
X141155630Y-86979997D01*
X141155179Y-86980054D01*
X141143343Y-86980986D01*
X141097169Y-86982438D01*
X141076579Y-86988420D01*
X141057218Y-86992430D01*
X141050230Y-86993312D01*
X141043796Y-86994125D01*
X141043795Y-86994125D01*
X141035936Y-86995118D01*
X141028571Y-86998034D01*
X141028567Y-86998035D01*
X140992979Y-87012126D01*
X140981769Y-87015965D01*
X140937400Y-87028855D01*
X140918935Y-87039775D01*
X140901195Y-87048466D01*
X140881244Y-87056365D01*
X140862410Y-87070049D01*
X140843874Y-87083516D01*
X140833952Y-87090033D01*
X140801023Y-87109507D01*
X140801019Y-87109510D01*
X140794193Y-87113547D01*
X140779029Y-87128711D01*
X140763996Y-87141551D01*
X140746643Y-87154159D01*
X140717198Y-87189752D01*
X140709208Y-87198532D01*
X136248395Y-91659345D01*
X136239615Y-91667335D01*
X136239613Y-91667337D01*
X136232920Y-91671584D01*
X136227494Y-91677362D01*
X136227493Y-91677363D01*
X136184396Y-91723257D01*
X136181641Y-91726099D01*
X136161073Y-91746667D01*
X136158356Y-91750170D01*
X136150648Y-91759195D01*
X136119028Y-91792867D01*
X136115207Y-91799818D01*
X136115206Y-91799819D01*
X136108697Y-91811658D01*
X136097843Y-91828182D01*
X136090018Y-91838271D01*
X136084696Y-91845132D01*
X136081549Y-91852404D01*
X136081548Y-91852406D01*
X136066346Y-91887535D01*
X136061124Y-91898195D01*
X136038876Y-91938663D01*
X136033541Y-91959441D01*
X136027142Y-91978131D01*
X136018620Y-91997824D01*
X136017380Y-92005655D01*
X136011394Y-92043448D01*
X136008987Y-92055071D01*
X135997500Y-92099812D01*
X135997500Y-92121259D01*
X135995949Y-92140969D01*
X135992594Y-92162152D01*
X135993340Y-92170043D01*
X135996941Y-92208138D01*
X135997500Y-92219996D01*
X135997500Y-94813643D01*
X135977498Y-94881764D01*
X135929682Y-94925405D01*
X135874800Y-94953975D01*
X135870657Y-94957085D01*
X135870658Y-94957085D01*
X135705867Y-95080814D01*
X135682680Y-95098223D01*
X135516699Y-95271912D01*
X135491160Y-95309351D01*
X135436249Y-95354352D01*
X135365725Y-95362523D01*
X135301978Y-95331269D01*
X135281284Y-95306790D01*
X135279915Y-95304674D01*
X135273622Y-95296502D01*
X135118950Y-95126520D01*
X135111417Y-95119494D01*
X134931056Y-94977055D01*
X134922469Y-94971350D01*
X134721278Y-94860286D01*
X134711866Y-94856056D01*
X134495232Y-94779341D01*
X134485261Y-94776707D01*
X134387837Y-94759353D01*
X134374540Y-94760813D01*
X134370000Y-94775370D01*
X134370000Y-97710096D01*
X134373918Y-97723440D01*
X134388194Y-97725427D01*
X134450515Y-97715890D01*
X134460543Y-97713501D01*
X134678988Y-97642102D01*
X134688497Y-97638105D01*
X134892344Y-97531989D01*
X134901069Y-97526495D01*
X135084852Y-97388507D01*
X135092559Y-97381664D01*
X135251339Y-97215509D01*
X135257823Y-97207502D01*
X135280237Y-97174644D01*
X135335148Y-97129641D01*
X135405672Y-97121468D01*
X135469420Y-97152722D01*
X135490116Y-97177204D01*
X135494498Y-97183977D01*
X135656186Y-97361670D01*
X135707331Y-97402062D01*
X135840670Y-97507367D01*
X135840675Y-97507370D01*
X135844724Y-97510568D01*
X135849240Y-97513061D01*
X135849243Y-97513063D01*
X136050526Y-97624177D01*
X136050530Y-97624179D01*
X136055050Y-97626674D01*
X136059919Y-97628398D01*
X136059923Y-97628400D01*
X136276640Y-97705144D01*
X136276644Y-97705145D01*
X136281515Y-97706870D01*
X136286608Y-97707777D01*
X136286611Y-97707778D01*
X136512948Y-97748095D01*
X136512954Y-97748096D01*
X136518037Y-97749001D01*
X136605400Y-97750068D01*
X136753093Y-97751873D01*
X136753095Y-97751873D01*
X136758263Y-97751936D01*
X136995744Y-97715596D01*
X137107997Y-97678906D01*
X137219183Y-97642566D01*
X137219189Y-97642563D01*
X137224101Y-97640958D01*
X137228687Y-97638571D01*
X137228691Y-97638569D01*
X137432607Y-97532416D01*
X137437200Y-97530025D01*
X137519387Y-97468317D01*
X137625185Y-97388882D01*
X137625188Y-97388880D01*
X137629320Y-97385777D01*
X137683577Y-97329000D01*
X141438502Y-97329000D01*
X141458457Y-97557087D01*
X141459881Y-97562400D01*
X141459881Y-97562402D01*
X141509881Y-97749001D01*
X141517716Y-97778243D01*
X141520039Y-97783224D01*
X141520039Y-97783225D01*
X141612151Y-97980762D01*
X141612154Y-97980767D01*
X141614477Y-97985749D01*
X141745802Y-98173300D01*
X141907700Y-98335198D01*
X141912208Y-98338355D01*
X141912211Y-98338357D01*
X141990389Y-98393098D01*
X142095251Y-98466523D01*
X142100233Y-98468846D01*
X142100238Y-98468849D01*
X142297775Y-98560961D01*
X142302757Y-98563284D01*
X142308065Y-98564706D01*
X142308067Y-98564707D01*
X142518598Y-98621119D01*
X142518600Y-98621119D01*
X142523913Y-98622543D01*
X142752000Y-98642498D01*
X142980087Y-98622543D01*
X142985400Y-98621119D01*
X142985402Y-98621119D01*
X143195933Y-98564707D01*
X143195935Y-98564706D01*
X143201243Y-98563284D01*
X143206225Y-98560961D01*
X143403762Y-98468849D01*
X143403767Y-98468846D01*
X143408749Y-98466523D01*
X143513611Y-98393098D01*
X143591789Y-98338357D01*
X143591792Y-98338355D01*
X143596300Y-98335198D01*
X143758198Y-98173300D01*
X143889523Y-97985749D01*
X143891846Y-97980767D01*
X143891849Y-97980762D01*
X143983961Y-97783225D01*
X143983961Y-97783224D01*
X143986284Y-97778243D01*
X143994120Y-97749001D01*
X144044119Y-97562402D01*
X144044119Y-97562400D01*
X144045543Y-97557087D01*
X144065498Y-97329000D01*
X144045543Y-97100913D01*
X144022153Y-97013622D01*
X143987707Y-96885067D01*
X143987706Y-96885065D01*
X143986284Y-96879757D01*
X143949282Y-96800405D01*
X143891849Y-96677238D01*
X143891846Y-96677233D01*
X143889523Y-96672251D01*
X143758198Y-96484700D01*
X143596300Y-96322802D01*
X143591792Y-96319645D01*
X143591789Y-96319643D01*
X143513611Y-96264902D01*
X143408749Y-96191477D01*
X143403767Y-96189154D01*
X143403762Y-96189151D01*
X143206225Y-96097039D01*
X143206224Y-96097039D01*
X143201243Y-96094716D01*
X143195935Y-96093294D01*
X143195933Y-96093293D01*
X142985402Y-96036881D01*
X142985400Y-96036881D01*
X142980087Y-96035457D01*
X142752000Y-96015502D01*
X142523913Y-96035457D01*
X142518600Y-96036881D01*
X142518598Y-96036881D01*
X142308067Y-96093293D01*
X142308065Y-96093294D01*
X142302757Y-96094716D01*
X142297776Y-96097039D01*
X142297775Y-96097039D01*
X142100238Y-96189151D01*
X142100233Y-96189154D01*
X142095251Y-96191477D01*
X141990389Y-96264902D01*
X141912211Y-96319643D01*
X141912208Y-96319645D01*
X141907700Y-96322802D01*
X141745802Y-96484700D01*
X141614477Y-96672251D01*
X141612154Y-96677233D01*
X141612151Y-96677238D01*
X141554718Y-96800405D01*
X141517716Y-96879757D01*
X141516294Y-96885065D01*
X141516293Y-96885067D01*
X141481847Y-97013622D01*
X141458457Y-97100913D01*
X141438502Y-97329000D01*
X137683577Y-97329000D01*
X137795301Y-97212088D01*
X137930686Y-97013622D01*
X137945243Y-96982263D01*
X138029658Y-96800405D01*
X138029659Y-96800401D01*
X138031837Y-96795710D01*
X138096040Y-96564202D01*
X138117000Y-96368072D01*
X138117000Y-96133598D01*
X138115548Y-96115928D01*
X138102746Y-95960224D01*
X138102322Y-95955063D01*
X138043794Y-95722056D01*
X137970115Y-95552604D01*
X137950057Y-95506474D01*
X137950055Y-95506471D01*
X137947997Y-95501737D01*
X137933721Y-95479669D01*
X146424001Y-95479669D01*
X146424371Y-95486490D01*
X146429895Y-95537352D01*
X146433521Y-95552604D01*
X146478676Y-95673054D01*
X146487214Y-95688649D01*
X146563715Y-95790724D01*
X146576276Y-95803285D01*
X146678351Y-95879786D01*
X146693946Y-95888324D01*
X146814394Y-95933478D01*
X146829649Y-95937105D01*
X146880514Y-95942631D01*
X146887328Y-95943000D01*
X147559885Y-95943000D01*
X147575124Y-95938525D01*
X147576329Y-95937135D01*
X147578000Y-95929452D01*
X147578000Y-94807115D01*
X147573525Y-94791876D01*
X147572135Y-94790671D01*
X147564452Y-94789000D01*
X146442116Y-94789000D01*
X146426877Y-94793475D01*
X146425672Y-94794865D01*
X146424001Y-94802548D01*
X146424001Y-95479669D01*
X137933721Y-95479669D01*
X137817502Y-95300023D01*
X137655814Y-95122330D01*
X137467276Y-94973432D01*
X137427704Y-94951587D01*
X137379606Y-94925035D01*
X137329635Y-94874602D01*
X137314500Y-94814727D01*
X137314500Y-94262885D01*
X146424000Y-94262885D01*
X146428475Y-94278124D01*
X146429865Y-94279329D01*
X146437548Y-94281000D01*
X147559885Y-94281000D01*
X147575124Y-94276525D01*
X147576329Y-94275135D01*
X147578000Y-94267452D01*
X147578000Y-93145116D01*
X147573525Y-93129877D01*
X147572135Y-93128672D01*
X147564452Y-93127001D01*
X146887331Y-93127001D01*
X146880510Y-93127371D01*
X146829648Y-93132895D01*
X146814396Y-93136521D01*
X146693946Y-93181676D01*
X146678351Y-93190214D01*
X146576276Y-93266715D01*
X146563715Y-93279276D01*
X146487214Y-93381351D01*
X146478676Y-93396946D01*
X146433522Y-93517394D01*
X146429895Y-93532649D01*
X146424369Y-93583514D01*
X146424000Y-93590328D01*
X146424000Y-94262885D01*
X137314500Y-94262885D01*
X137314500Y-92507950D01*
X137334502Y-92439829D01*
X137351405Y-92418855D01*
X141436855Y-88333405D01*
X141499167Y-88299379D01*
X141525950Y-88296500D01*
X142116592Y-88296500D01*
X142184713Y-88316502D01*
X142231206Y-88370158D01*
X142241310Y-88440432D01*
X142211816Y-88505012D01*
X142169841Y-88536695D01*
X142100242Y-88569149D01*
X142100236Y-88569153D01*
X142095251Y-88571477D01*
X141990389Y-88644902D01*
X141912211Y-88699643D01*
X141912208Y-88699645D01*
X141907700Y-88702802D01*
X141745802Y-88864700D01*
X141614477Y-89052251D01*
X141612154Y-89057233D01*
X141612151Y-89057238D01*
X141520039Y-89254775D01*
X141517716Y-89259757D01*
X141458457Y-89480913D01*
X141438502Y-89709000D01*
X141458457Y-89937087D01*
X141459880Y-89942398D01*
X141459881Y-89942402D01*
X141475460Y-90000541D01*
X141517716Y-90158243D01*
X141520039Y-90163224D01*
X141520039Y-90163225D01*
X141612151Y-90360762D01*
X141612154Y-90360767D01*
X141614477Y-90365749D01*
X141617634Y-90370257D01*
X141739504Y-90544305D01*
X141745802Y-90553300D01*
X141907700Y-90715198D01*
X141912208Y-90718355D01*
X141912211Y-90718357D01*
X141990389Y-90773098D01*
X142095251Y-90846523D01*
X142100233Y-90848846D01*
X142100238Y-90848849D01*
X142297775Y-90940961D01*
X142302757Y-90943284D01*
X142308065Y-90944706D01*
X142308067Y-90944707D01*
X142518598Y-91001119D01*
X142518600Y-91001119D01*
X142523913Y-91002543D01*
X142752000Y-91022498D01*
X142980087Y-91002543D01*
X142985398Y-91001120D01*
X142985409Y-91001118D01*
X143043541Y-90985541D01*
X143114517Y-90987230D01*
X143165248Y-91018152D01*
X143677343Y-91530247D01*
X143684887Y-91538537D01*
X143689000Y-91545018D01*
X143694777Y-91550443D01*
X143738667Y-91591658D01*
X143741509Y-91594413D01*
X143761230Y-91614134D01*
X143764425Y-91616612D01*
X143773447Y-91624318D01*
X143805679Y-91654586D01*
X143812628Y-91658406D01*
X143823432Y-91664346D01*
X143839956Y-91675199D01*
X143855959Y-91687613D01*
X143896543Y-91705176D01*
X143907173Y-91710383D01*
X143945940Y-91731695D01*
X143953617Y-91733666D01*
X143953622Y-91733668D01*
X143965558Y-91736732D01*
X143984266Y-91743137D01*
X144002855Y-91751181D01*
X144010683Y-91752421D01*
X144010690Y-91752423D01*
X144046524Y-91758099D01*
X144058144Y-91760505D01*
X144093289Y-91769528D01*
X144100970Y-91771500D01*
X144121224Y-91771500D01*
X144140934Y-91773051D01*
X144160943Y-91776220D01*
X144168835Y-91775474D01*
X144204961Y-91772059D01*
X144216819Y-91771500D01*
X149741500Y-91771500D01*
X149809621Y-91791502D01*
X149856114Y-91845158D01*
X149867500Y-91897500D01*
X149867500Y-93133167D01*
X149847498Y-93201288D01*
X149799684Y-93244928D01*
X149618872Y-93339052D01*
X149614739Y-93342155D01*
X149614736Y-93342157D01*
X149437790Y-93475012D01*
X149433655Y-93478117D01*
X149430083Y-93481855D01*
X149415787Y-93496815D01*
X149354263Y-93532245D01*
X149283351Y-93528788D01*
X149225564Y-93487543D01*
X149206711Y-93453994D01*
X149185324Y-93396946D01*
X149176786Y-93381351D01*
X149100285Y-93279276D01*
X149087724Y-93266715D01*
X148985649Y-93190214D01*
X148970054Y-93181676D01*
X148849606Y-93136522D01*
X148834351Y-93132895D01*
X148783486Y-93127369D01*
X148776672Y-93127000D01*
X148104115Y-93127000D01*
X148088876Y-93131475D01*
X148087671Y-93132865D01*
X148086000Y-93140548D01*
X148086000Y-95924884D01*
X148090475Y-95940123D01*
X148091865Y-95941328D01*
X148099548Y-95942999D01*
X148776669Y-95942999D01*
X148783490Y-95942629D01*
X148834352Y-95937105D01*
X148849604Y-95933479D01*
X148970054Y-95888324D01*
X148985649Y-95879786D01*
X149087724Y-95803285D01*
X149100285Y-95790724D01*
X149176786Y-95688649D01*
X149185324Y-95673054D01*
X149206773Y-95615840D01*
X149249415Y-95559075D01*
X149315977Y-95534376D01*
X149385325Y-95549584D01*
X149405240Y-95563126D01*
X149561349Y-95692730D01*
X149761322Y-95809584D01*
X149977694Y-95892209D01*
X149982760Y-95893240D01*
X149982761Y-95893240D01*
X150035846Y-95904040D01*
X150204656Y-95938385D01*
X150335324Y-95943176D01*
X150430949Y-95946683D01*
X150430953Y-95946683D01*
X150436113Y-95946872D01*
X150441233Y-95946216D01*
X150441235Y-95946216D01*
X150540668Y-95933478D01*
X150665847Y-95917442D01*
X150670795Y-95915957D01*
X150670802Y-95915956D01*
X150882747Y-95852369D01*
X150887690Y-95850886D01*
X150892324Y-95848616D01*
X150961068Y-95814939D01*
X151031042Y-95802933D01*
X151096399Y-95830664D01*
X151136389Y-95889327D01*
X151142500Y-95928091D01*
X151142500Y-104813051D01*
X151122498Y-104881172D01*
X151105595Y-104902146D01*
X149892562Y-106115178D01*
X149830250Y-106149204D01*
X149759434Y-106144139D01*
X149750218Y-106140278D01*
X149683232Y-106109042D01*
X149683228Y-106109041D01*
X149678243Y-106106716D01*
X149567665Y-106077086D01*
X149462402Y-106048881D01*
X149462400Y-106048881D01*
X149457087Y-106047457D01*
X149229000Y-106027502D01*
X149000913Y-106047457D01*
X148995600Y-106048881D01*
X148995598Y-106048881D01*
X148785067Y-106105293D01*
X148785065Y-106105294D01*
X148779757Y-106106716D01*
X148774776Y-106109039D01*
X148774775Y-106109039D01*
X148577238Y-106201151D01*
X148577233Y-106201154D01*
X148572251Y-106203477D01*
X148467389Y-106276902D01*
X148389211Y-106331643D01*
X148389208Y-106331645D01*
X148384700Y-106334802D01*
X148222802Y-106496700D01*
X148091477Y-106684251D01*
X148089154Y-106689233D01*
X148089151Y-106689238D01*
X148020769Y-106835885D01*
X147994716Y-106891757D01*
X147935457Y-107112913D01*
X147915502Y-107341000D01*
X147935457Y-107569087D01*
X147936881Y-107574400D01*
X147936881Y-107574402D01*
X147986568Y-107759833D01*
X147994716Y-107790243D01*
X147997039Y-107795224D01*
X147997039Y-107795225D01*
X148089151Y-107992762D01*
X148089154Y-107992767D01*
X148091477Y-107997749D01*
X148222802Y-108185300D01*
X148384700Y-108347198D01*
X148389208Y-108350355D01*
X148389211Y-108350357D01*
X148467389Y-108405098D01*
X148572251Y-108478523D01*
X148577233Y-108480846D01*
X148577238Y-108480849D01*
X148774775Y-108572961D01*
X148779757Y-108575284D01*
X148785065Y-108576706D01*
X148785067Y-108576707D01*
X148995598Y-108633119D01*
X148995600Y-108633119D01*
X149000913Y-108634543D01*
X149229000Y-108654498D01*
X149457087Y-108634543D01*
X149462400Y-108633119D01*
X149462402Y-108633119D01*
X149672933Y-108576707D01*
X149672935Y-108576706D01*
X149678243Y-108575284D01*
X149683225Y-108572961D01*
X149880762Y-108480849D01*
X149880767Y-108480846D01*
X149885749Y-108478523D01*
X149990611Y-108405098D01*
X150068789Y-108350357D01*
X150068792Y-108350355D01*
X150073300Y-108347198D01*
X150235198Y-108185300D01*
X150366523Y-107997749D01*
X150368846Y-107992767D01*
X150368849Y-107992762D01*
X150460961Y-107795225D01*
X150460961Y-107795224D01*
X150463284Y-107790243D01*
X150471433Y-107759833D01*
X150521119Y-107574402D01*
X150521119Y-107574400D01*
X150522543Y-107569087D01*
X150523022Y-107563611D01*
X150523023Y-107563606D01*
X150539076Y-107380115D01*
X150539770Y-107372177D01*
X150565633Y-107306059D01*
X150576188Y-107294072D01*
X151553407Y-106316853D01*
X151615717Y-106282829D01*
X151686532Y-106287893D01*
X151743368Y-106330440D01*
X151768179Y-106396960D01*
X151768500Y-106405949D01*
X151768500Y-111580698D01*
X151748498Y-111648819D01*
X151694842Y-111695312D01*
X151624568Y-111705416D01*
X151559988Y-111675922D01*
X151536708Y-111649138D01*
X151494574Y-111584009D01*
X151491764Y-111579665D01*
X151335887Y-111408358D01*
X151331836Y-111405159D01*
X151331832Y-111405155D01*
X151158177Y-111268011D01*
X151158172Y-111268008D01*
X151154123Y-111264810D01*
X151149607Y-111262317D01*
X151149604Y-111262315D01*
X150955879Y-111155373D01*
X150955875Y-111155371D01*
X150951355Y-111152876D01*
X150946486Y-111151152D01*
X150946482Y-111151150D01*
X150737903Y-111077288D01*
X150737899Y-111077287D01*
X150733028Y-111075562D01*
X150727935Y-111074655D01*
X150727932Y-111074654D01*
X150510095Y-111035851D01*
X150510089Y-111035850D01*
X150505006Y-111034945D01*
X150427644Y-111034000D01*
X150278581Y-111032179D01*
X150278579Y-111032179D01*
X150273411Y-111032116D01*
X150044464Y-111067150D01*
X149824314Y-111139106D01*
X149819726Y-111141494D01*
X149819722Y-111141496D01*
X149623461Y-111243663D01*
X149618872Y-111246052D01*
X149614739Y-111249155D01*
X149614736Y-111249157D01*
X149437790Y-111382012D01*
X149433655Y-111385117D01*
X149430083Y-111388855D01*
X149415787Y-111403815D01*
X149354263Y-111439245D01*
X149283351Y-111435788D01*
X149225564Y-111394543D01*
X149206711Y-111360994D01*
X149185324Y-111303946D01*
X149176786Y-111288351D01*
X149100285Y-111186276D01*
X149087724Y-111173715D01*
X148985649Y-111097214D01*
X148970054Y-111088676D01*
X148849606Y-111043522D01*
X148834351Y-111039895D01*
X148783486Y-111034369D01*
X148776672Y-111034000D01*
X148104115Y-111034000D01*
X148088876Y-111038475D01*
X148087671Y-111039865D01*
X148086000Y-111047548D01*
X148086000Y-113831884D01*
X148090475Y-113847123D01*
X148091865Y-113848328D01*
X148099548Y-113849999D01*
X148776669Y-113849999D01*
X148783490Y-113849629D01*
X148834352Y-113844105D01*
X148849604Y-113840479D01*
X148970054Y-113795324D01*
X148985649Y-113786786D01*
X149087724Y-113710285D01*
X149100285Y-113697724D01*
X149176786Y-113595649D01*
X149185324Y-113580054D01*
X149206773Y-113522840D01*
X149249415Y-113466075D01*
X149315977Y-113441376D01*
X149385325Y-113456584D01*
X149405240Y-113470126D01*
X149561349Y-113599730D01*
X149761322Y-113716584D01*
X149977694Y-113799209D01*
X149982760Y-113800240D01*
X149982761Y-113800240D01*
X150035846Y-113811040D01*
X150204656Y-113845385D01*
X150335324Y-113850176D01*
X150430949Y-113853683D01*
X150430953Y-113853683D01*
X150436113Y-113853872D01*
X150441233Y-113853216D01*
X150441235Y-113853216D01*
X150540668Y-113840478D01*
X150665847Y-113824442D01*
X150670795Y-113822957D01*
X150670802Y-113822956D01*
X150882747Y-113759369D01*
X150887690Y-113757886D01*
X150968236Y-113718427D01*
X151091049Y-113658262D01*
X151091052Y-113658260D01*
X151095684Y-113655991D01*
X151284243Y-113521494D01*
X151448303Y-113358005D01*
X151451317Y-113353811D01*
X151451326Y-113353800D01*
X151540178Y-113230149D01*
X151596172Y-113186501D01*
X151666876Y-113180055D01*
X151729840Y-113212858D01*
X151765074Y-113274494D01*
X151768500Y-113303675D01*
X151768500Y-124879377D01*
X151768498Y-124880147D01*
X151768024Y-124957721D01*
X151770491Y-124966352D01*
X151776150Y-124986153D01*
X151779728Y-125002915D01*
X151783920Y-125032187D01*
X151787634Y-125040355D01*
X151787634Y-125040356D01*
X151794548Y-125055562D01*
X151800996Y-125073086D01*
X151808051Y-125097771D01*
X151812843Y-125105365D01*
X151812844Y-125105368D01*
X151823830Y-125122780D01*
X151831969Y-125137863D01*
X151844208Y-125164782D01*
X151850069Y-125171584D01*
X151860970Y-125184235D01*
X151872073Y-125199239D01*
X151885776Y-125220958D01*
X151892501Y-125226897D01*
X151892504Y-125226901D01*
X151907938Y-125240532D01*
X151919982Y-125252724D01*
X151933427Y-125268327D01*
X151933430Y-125268329D01*
X151939287Y-125275127D01*
X151946816Y-125280007D01*
X151946817Y-125280008D01*
X151960835Y-125289094D01*
X151975709Y-125300385D01*
X151988217Y-125311431D01*
X151994951Y-125317378D01*
X152021711Y-125329942D01*
X152036691Y-125338263D01*
X152053983Y-125349471D01*
X152053988Y-125349473D01*
X152061515Y-125354352D01*
X152070108Y-125356922D01*
X152070113Y-125356924D01*
X152086120Y-125361711D01*
X152103564Y-125368372D01*
X152118676Y-125375467D01*
X152118678Y-125375468D01*
X152126800Y-125379281D01*
X152135667Y-125380662D01*
X152135668Y-125380662D01*
X152145310Y-125382163D01*
X152156017Y-125383830D01*
X152172732Y-125387613D01*
X152192466Y-125393515D01*
X152192472Y-125393516D01*
X152201066Y-125396086D01*
X152210037Y-125396141D01*
X152210038Y-125396141D01*
X152220097Y-125396202D01*
X152235506Y-125396296D01*
X152236289Y-125396329D01*
X152237386Y-125396500D01*
X152268377Y-125396500D01*
X152269147Y-125396502D01*
X152342785Y-125396952D01*
X152342786Y-125396952D01*
X152346721Y-125396976D01*
X152348065Y-125396592D01*
X152349410Y-125396500D01*
X152845431Y-125396500D01*
X152913552Y-125416502D01*
X152960045Y-125470158D01*
X152970149Y-125540432D01*
X152946257Y-125598065D01*
X152876385Y-125691295D01*
X152825255Y-125827684D01*
X152818500Y-125889866D01*
X152818500Y-127686134D01*
X152825255Y-127748316D01*
X152876385Y-127884705D01*
X152963739Y-128001261D01*
X153080295Y-128088615D01*
X153088704Y-128091767D01*
X153088705Y-128091768D01*
X153197960Y-128132726D01*
X153254725Y-128175367D01*
X153279425Y-128241929D01*
X153264218Y-128311278D01*
X153244825Y-128337759D01*
X153121590Y-128466717D01*
X153115104Y-128474727D01*
X152995098Y-128650649D01*
X152990000Y-128659623D01*
X152900338Y-128852783D01*
X152896775Y-128862470D01*
X152841389Y-129062183D01*
X152842912Y-129070607D01*
X152855292Y-129074000D01*
X156845000Y-129074000D01*
X156913121Y-129094002D01*
X156959614Y-129147658D01*
X156971000Y-129200000D01*
X156971000Y-129456000D01*
X156950998Y-129524121D01*
X156897342Y-129570614D01*
X156845000Y-129582000D01*
X152860225Y-129582000D01*
X152846694Y-129585973D01*
X152845257Y-129595966D01*
X152875565Y-129730446D01*
X152878645Y-129740275D01*
X152958770Y-129937603D01*
X152963413Y-129946794D01*
X153074694Y-130128388D01*
X153080777Y-130136699D01*
X153220213Y-130297667D01*
X153227580Y-130304883D01*
X153391434Y-130440916D01*
X153399881Y-130446831D01*
X153583756Y-130554279D01*
X153593043Y-130558729D01*
X153627781Y-130571994D01*
X153684284Y-130614981D01*
X153708577Y-130681693D01*
X153692947Y-130750947D01*
X153642356Y-130800758D01*
X153583261Y-130815703D01*
X141342113Y-130857339D01*
X141273924Y-130837569D01*
X141227249Y-130784072D01*
X141216906Y-130713833D01*
X141220415Y-130697139D01*
X141250892Y-130589076D01*
X141250893Y-130589071D01*
X141252163Y-130584568D01*
X141270438Y-130440916D01*
X141285688Y-130321045D01*
X141285688Y-130321041D01*
X141286086Y-130317915D01*
X141288571Y-130223000D01*
X141268650Y-129954937D01*
X141267619Y-129950379D01*
X141210361Y-129697331D01*
X141210360Y-129697326D01*
X141209327Y-129692763D01*
X141111902Y-129442238D01*
X140978518Y-129208864D01*
X140971531Y-129200000D01*
X140912416Y-129125014D01*
X140812105Y-128997769D01*
X140616317Y-128813591D01*
X140395457Y-128660374D01*
X140375315Y-128650441D01*
X140158564Y-128543551D01*
X140158561Y-128543550D01*
X140154376Y-128541486D01*
X140106745Y-128526239D01*
X139963202Y-128480291D01*
X139898370Y-128459538D01*
X139893763Y-128458788D01*
X139893760Y-128458787D01*
X139637674Y-128417081D01*
X139637675Y-128417081D01*
X139633063Y-128416330D01*
X139502719Y-128414624D01*
X139368961Y-128412873D01*
X139368958Y-128412873D01*
X139364284Y-128412812D01*
X139097937Y-128449060D01*
X138839874Y-128524278D01*
X138595763Y-128636815D01*
X138591854Y-128639378D01*
X138374881Y-128781631D01*
X138374876Y-128781635D01*
X138370968Y-128784197D01*
X138170426Y-128963188D01*
X137998544Y-129169854D01*
X137859096Y-129399656D01*
X137857287Y-129403970D01*
X137857285Y-129403974D01*
X137806904Y-129524121D01*
X137755148Y-129647545D01*
X137688981Y-129908077D01*
X137662050Y-130175526D01*
X137674947Y-130444019D01*
X137727388Y-130707656D01*
X137728494Y-130710738D01*
X137727431Y-130781358D01*
X137688152Y-130840499D01*
X137623135Y-130869016D01*
X137607512Y-130870042D01*
X129450790Y-130897786D01*
X128926429Y-130899570D01*
X128858240Y-130879800D01*
X128811565Y-130826303D01*
X128800000Y-130773571D01*
X128800000Y-128190000D01*
X147534502Y-128190000D01*
X147554457Y-128418087D01*
X147555881Y-128423400D01*
X147555881Y-128423402D01*
X147587141Y-128540063D01*
X147613716Y-128639243D01*
X147616039Y-128644224D01*
X147616039Y-128644225D01*
X147708151Y-128841762D01*
X147708154Y-128841767D01*
X147710477Y-128846749D01*
X147721485Y-128862470D01*
X147816223Y-128997769D01*
X147841802Y-129034300D01*
X148003700Y-129196198D01*
X148008208Y-129199355D01*
X148008211Y-129199357D01*
X148027584Y-129212922D01*
X148191251Y-129327523D01*
X148196233Y-129329846D01*
X148196238Y-129329849D01*
X148393775Y-129421961D01*
X148398757Y-129424284D01*
X148404065Y-129425706D01*
X148404067Y-129425707D01*
X148614598Y-129482119D01*
X148614600Y-129482119D01*
X148619913Y-129483543D01*
X148848000Y-129503498D01*
X149076087Y-129483543D01*
X149081400Y-129482119D01*
X149081402Y-129482119D01*
X149291933Y-129425707D01*
X149291935Y-129425706D01*
X149297243Y-129424284D01*
X149302225Y-129421961D01*
X149499762Y-129329849D01*
X149499767Y-129329846D01*
X149504749Y-129327523D01*
X149668416Y-129212922D01*
X149687789Y-129199357D01*
X149687792Y-129199355D01*
X149692300Y-129196198D01*
X149854198Y-129034300D01*
X149879778Y-128997769D01*
X149974515Y-128862470D01*
X149985523Y-128846749D01*
X149987846Y-128841767D01*
X149987849Y-128841762D01*
X150079961Y-128644225D01*
X150079961Y-128644224D01*
X150082284Y-128639243D01*
X150108860Y-128540063D01*
X150140119Y-128423402D01*
X150140119Y-128423400D01*
X150141543Y-128418087D01*
X150161498Y-128190000D01*
X150141543Y-127961913D01*
X150140119Y-127956598D01*
X150083707Y-127746067D01*
X150083706Y-127746065D01*
X150082284Y-127740757D01*
X150079961Y-127735775D01*
X149987849Y-127538238D01*
X149987846Y-127538233D01*
X149985523Y-127533251D01*
X149854198Y-127345700D01*
X149692300Y-127183802D01*
X149687792Y-127180645D01*
X149687789Y-127180643D01*
X149609611Y-127125902D01*
X149504749Y-127052477D01*
X149499767Y-127050154D01*
X149499762Y-127050151D01*
X149302225Y-126958039D01*
X149302224Y-126958039D01*
X149297243Y-126955716D01*
X149291935Y-126954294D01*
X149291933Y-126954293D01*
X149081402Y-126897881D01*
X149081400Y-126897881D01*
X149076087Y-126896457D01*
X148848000Y-126876502D01*
X148619913Y-126896457D01*
X148614600Y-126897881D01*
X148614598Y-126897881D01*
X148404067Y-126954293D01*
X148404065Y-126954294D01*
X148398757Y-126955716D01*
X148393776Y-126958039D01*
X148393775Y-126958039D01*
X148196238Y-127050151D01*
X148196233Y-127050154D01*
X148191251Y-127052477D01*
X148086389Y-127125902D01*
X148008211Y-127180643D01*
X148008208Y-127180645D01*
X148003700Y-127183802D01*
X147841802Y-127345700D01*
X147710477Y-127533251D01*
X147708154Y-127538233D01*
X147708151Y-127538238D01*
X147616039Y-127735775D01*
X147613716Y-127740757D01*
X147612294Y-127746065D01*
X147612293Y-127746067D01*
X147555881Y-127956598D01*
X147554457Y-127961913D01*
X147534502Y-128190000D01*
X128800000Y-128190000D01*
X128800000Y-116638134D01*
X129332500Y-116638134D01*
X129339255Y-116700316D01*
X129390385Y-116836705D01*
X129477739Y-116953261D01*
X129594295Y-117040615D01*
X129730684Y-117091745D01*
X129792866Y-117098500D01*
X132089134Y-117098500D01*
X132151316Y-117091745D01*
X132287705Y-117040615D01*
X132404261Y-116953261D01*
X132491615Y-116836705D01*
X132542745Y-116700316D01*
X132549500Y-116638134D01*
X132549500Y-114341866D01*
X132542745Y-114279684D01*
X132491615Y-114143295D01*
X132404261Y-114026739D01*
X132287705Y-113939385D01*
X132151316Y-113888255D01*
X132089134Y-113881500D01*
X129792866Y-113881500D01*
X129730684Y-113888255D01*
X129594295Y-113939385D01*
X129477739Y-114026739D01*
X129390385Y-114143295D01*
X129339255Y-114279684D01*
X129332500Y-114341866D01*
X129332500Y-116638134D01*
X128800000Y-116638134D01*
X128800000Y-112447134D01*
X129205500Y-112447134D01*
X129212255Y-112509316D01*
X129263385Y-112645705D01*
X129350739Y-112762261D01*
X129467295Y-112849615D01*
X129603684Y-112900745D01*
X129665866Y-112907500D01*
X131962134Y-112907500D01*
X132024316Y-112900745D01*
X132160705Y-112849615D01*
X132277261Y-112762261D01*
X132364615Y-112645705D01*
X132415745Y-112509316D01*
X132422500Y-112447134D01*
X132422500Y-110150866D01*
X132415745Y-110088684D01*
X132364615Y-109952295D01*
X132359230Y-109945110D01*
X132359229Y-109945108D01*
X132341166Y-109921007D01*
X132316318Y-109854500D01*
X132331371Y-109785118D01*
X132381545Y-109734888D01*
X132450911Y-109719758D01*
X132517445Y-109744532D01*
X132531087Y-109756347D01*
X138672345Y-115897605D01*
X138680335Y-115906385D01*
X138684584Y-115913080D01*
X138690362Y-115918506D01*
X138690363Y-115918507D01*
X138736257Y-115961604D01*
X138739099Y-115964359D01*
X138759667Y-115984927D01*
X138763170Y-115987644D01*
X138772195Y-115995352D01*
X138805867Y-116026972D01*
X138812818Y-116030793D01*
X138812819Y-116030794D01*
X138824658Y-116037303D01*
X138841182Y-116048157D01*
X138851271Y-116055982D01*
X138858132Y-116061304D01*
X138865404Y-116064451D01*
X138865406Y-116064452D01*
X138900535Y-116079654D01*
X138911196Y-116084876D01*
X138951663Y-116107124D01*
X138972441Y-116112459D01*
X138991131Y-116118858D01*
X139010824Y-116127380D01*
X139054596Y-116134313D01*
X139056448Y-116134606D01*
X139068071Y-116137013D01*
X139096072Y-116144202D01*
X139112812Y-116148500D01*
X139134259Y-116148500D01*
X139153969Y-116150051D01*
X139175152Y-116153406D01*
X139183045Y-116152660D01*
X139183047Y-116152660D01*
X139192486Y-116151768D01*
X139262186Y-116165272D01*
X139313521Y-116214315D01*
X139330192Y-116283327D01*
X139306906Y-116350396D01*
X139293436Y-116366304D01*
X136067395Y-119592345D01*
X136058615Y-119600335D01*
X136058613Y-119600337D01*
X136051920Y-119604584D01*
X136046494Y-119610362D01*
X136046493Y-119610363D01*
X136003396Y-119656257D01*
X136000641Y-119659099D01*
X135980073Y-119679667D01*
X135977356Y-119683170D01*
X135969648Y-119692195D01*
X135938028Y-119725867D01*
X135934207Y-119732818D01*
X135934206Y-119732819D01*
X135927697Y-119744658D01*
X135916843Y-119761182D01*
X135909018Y-119771271D01*
X135903696Y-119778132D01*
X135900549Y-119785404D01*
X135900548Y-119785406D01*
X135885346Y-119820535D01*
X135880124Y-119831195D01*
X135857876Y-119871663D01*
X135852541Y-119892441D01*
X135846142Y-119911131D01*
X135837620Y-119930824D01*
X135836380Y-119938655D01*
X135830394Y-119976448D01*
X135827987Y-119988071D01*
X135816500Y-120032812D01*
X135816500Y-120054259D01*
X135814949Y-120073969D01*
X135811594Y-120095152D01*
X135813544Y-120115775D01*
X135815941Y-120141138D01*
X135816500Y-120152996D01*
X135816500Y-123754396D01*
X135796498Y-123822517D01*
X135743251Y-123868822D01*
X135595763Y-123936815D01*
X135591854Y-123939378D01*
X135374881Y-124081631D01*
X135374876Y-124081635D01*
X135370968Y-124084197D01*
X135170426Y-124263188D01*
X135059370Y-124396719D01*
X135007886Y-124458622D01*
X134998544Y-124469854D01*
X134859096Y-124699656D01*
X134857287Y-124703970D01*
X134857285Y-124703974D01*
X134839414Y-124746592D01*
X134755148Y-124947545D01*
X134688981Y-125208077D01*
X134662050Y-125475526D01*
X134662274Y-125480192D01*
X134662274Y-125480197D01*
X134667936Y-125598065D01*
X134674947Y-125744019D01*
X134727388Y-126007656D01*
X134818220Y-126260646D01*
X134820432Y-126264762D01*
X134820433Y-126264765D01*
X134884555Y-126384100D01*
X134945450Y-126497431D01*
X134948241Y-126501168D01*
X134948245Y-126501175D01*
X135029887Y-126610506D01*
X135106281Y-126712810D01*
X135109590Y-126716090D01*
X135109595Y-126716096D01*
X135271408Y-126876502D01*
X135297180Y-126902050D01*
X135300942Y-126904808D01*
X135300945Y-126904811D01*
X135510183Y-127058230D01*
X135513954Y-127060995D01*
X135518089Y-127063171D01*
X135518093Y-127063173D01*
X135747698Y-127183975D01*
X135751840Y-127186154D01*
X136005613Y-127274775D01*
X136010206Y-127275647D01*
X136265109Y-127324042D01*
X136265112Y-127324042D01*
X136269698Y-127324913D01*
X136397370Y-127329929D01*
X136533625Y-127335283D01*
X136533630Y-127335283D01*
X136538293Y-127335466D01*
X136642607Y-127324042D01*
X136800844Y-127306713D01*
X136800850Y-127306712D01*
X136805497Y-127306203D01*
X136917302Y-127276767D01*
X137060918Y-127238956D01*
X137060920Y-127238955D01*
X137065441Y-127237765D01*
X137181973Y-127187699D01*
X137308120Y-127133502D01*
X137308122Y-127133501D01*
X137312414Y-127131657D01*
X137440368Y-127052477D01*
X137537017Y-126992669D01*
X137537021Y-126992666D01*
X137540990Y-126990210D01*
X137681648Y-126871134D01*
X140666500Y-126871134D01*
X140673255Y-126933316D01*
X140724385Y-127069705D01*
X140811739Y-127186261D01*
X140928295Y-127273615D01*
X141064684Y-127324745D01*
X141126866Y-127331500D01*
X143823134Y-127331500D01*
X143885316Y-127324745D01*
X144021705Y-127273615D01*
X144138261Y-127186261D01*
X144225615Y-127069705D01*
X144276745Y-126933316D01*
X144283500Y-126871134D01*
X144283500Y-124174866D01*
X144276745Y-124112684D01*
X144225615Y-123976295D01*
X144138261Y-123859739D01*
X144021705Y-123772385D01*
X143885316Y-123721255D01*
X143823134Y-123714500D01*
X141126866Y-123714500D01*
X141064684Y-123721255D01*
X140928295Y-123772385D01*
X140811739Y-123859739D01*
X140724385Y-123976295D01*
X140673255Y-124112684D01*
X140666500Y-124174866D01*
X140666500Y-126871134D01*
X137681648Y-126871134D01*
X137746149Y-126816530D01*
X137923382Y-126614434D01*
X138068797Y-126388361D01*
X138179199Y-126143278D01*
X138216209Y-126012051D01*
X138250893Y-125889072D01*
X138250894Y-125889069D01*
X138252163Y-125884568D01*
X138270043Y-125744019D01*
X138285688Y-125621045D01*
X138285688Y-125621041D01*
X138286086Y-125617915D01*
X138287017Y-125582376D01*
X138288004Y-125544638D01*
X138288571Y-125523000D01*
X138272848Y-125311431D01*
X138268996Y-125259592D01*
X138268996Y-125259591D01*
X138268650Y-125254937D01*
X138265391Y-125240532D01*
X138210361Y-124997331D01*
X138210360Y-124997326D01*
X138209327Y-124992763D01*
X138111902Y-124742238D01*
X137978518Y-124508864D01*
X137972219Y-124500873D01*
X137885482Y-124390848D01*
X137812105Y-124297769D01*
X137616317Y-124113591D01*
X137418407Y-123976295D01*
X137399299Y-123963039D01*
X137399296Y-123963037D01*
X137395457Y-123960374D01*
X137203771Y-123865845D01*
X137151523Y-123817776D01*
X137133500Y-123752839D01*
X137133500Y-120570000D01*
X147534502Y-120570000D01*
X147554457Y-120798087D01*
X147613716Y-121019243D01*
X147616039Y-121024224D01*
X147616039Y-121024225D01*
X147708151Y-121221762D01*
X147708154Y-121221767D01*
X147710477Y-121226749D01*
X147841802Y-121414300D01*
X148003700Y-121576198D01*
X148008208Y-121579355D01*
X148008211Y-121579357D01*
X148086389Y-121634098D01*
X148191251Y-121707523D01*
X148196233Y-121709846D01*
X148196238Y-121709849D01*
X148393775Y-121801961D01*
X148398757Y-121804284D01*
X148404065Y-121805706D01*
X148404067Y-121805707D01*
X148614598Y-121862119D01*
X148614600Y-121862119D01*
X148619913Y-121863543D01*
X148848000Y-121883498D01*
X149076087Y-121863543D01*
X149081400Y-121862119D01*
X149081402Y-121862119D01*
X149291933Y-121805707D01*
X149291935Y-121805706D01*
X149297243Y-121804284D01*
X149302225Y-121801961D01*
X149499762Y-121709849D01*
X149499767Y-121709846D01*
X149504749Y-121707523D01*
X149609611Y-121634098D01*
X149687789Y-121579357D01*
X149687792Y-121579355D01*
X149692300Y-121576198D01*
X149854198Y-121414300D01*
X149985523Y-121226749D01*
X149987846Y-121221767D01*
X149987849Y-121221762D01*
X150079961Y-121024225D01*
X150079961Y-121024224D01*
X150082284Y-121019243D01*
X150141543Y-120798087D01*
X150161498Y-120570000D01*
X150141543Y-120341913D01*
X150140119Y-120336598D01*
X150083707Y-120126067D01*
X150083706Y-120126065D01*
X150082284Y-120120757D01*
X150020412Y-119988071D01*
X149987849Y-119918238D01*
X149987846Y-119918233D01*
X149985523Y-119913251D01*
X149896005Y-119785406D01*
X149857357Y-119730211D01*
X149857355Y-119730208D01*
X149854198Y-119725700D01*
X149692300Y-119563802D01*
X149687792Y-119560645D01*
X149687789Y-119560643D01*
X149609611Y-119505902D01*
X149504749Y-119432477D01*
X149499767Y-119430154D01*
X149499762Y-119430151D01*
X149302225Y-119338039D01*
X149302224Y-119338039D01*
X149297243Y-119335716D01*
X149291935Y-119334294D01*
X149291933Y-119334293D01*
X149081402Y-119277881D01*
X149081400Y-119277881D01*
X149076087Y-119276457D01*
X148848000Y-119256502D01*
X148619913Y-119276457D01*
X148614600Y-119277881D01*
X148614598Y-119277881D01*
X148404067Y-119334293D01*
X148404065Y-119334294D01*
X148398757Y-119335716D01*
X148393776Y-119338039D01*
X148393775Y-119338039D01*
X148196238Y-119430151D01*
X148196233Y-119430154D01*
X148191251Y-119432477D01*
X148086389Y-119505902D01*
X148008211Y-119560643D01*
X148008208Y-119560645D01*
X148003700Y-119563802D01*
X147841802Y-119725700D01*
X147838645Y-119730208D01*
X147838643Y-119730211D01*
X147799995Y-119785406D01*
X147710477Y-119913251D01*
X147708154Y-119918233D01*
X147708151Y-119918238D01*
X147675588Y-119988071D01*
X147613716Y-120120757D01*
X147612294Y-120126065D01*
X147612293Y-120126067D01*
X147555881Y-120336598D01*
X147554457Y-120341913D01*
X147534502Y-120570000D01*
X137133500Y-120570000D01*
X137133500Y-120440950D01*
X137153502Y-120372829D01*
X137170405Y-120351855D01*
X140469130Y-117053130D01*
X140531442Y-117019104D01*
X140597161Y-117022392D01*
X140597841Y-117022613D01*
X140602409Y-117024505D01*
X140607217Y-117025659D01*
X140607216Y-117025659D01*
X140843784Y-117082454D01*
X140843790Y-117082455D01*
X140848597Y-117083609D01*
X141101000Y-117103474D01*
X141353403Y-117083609D01*
X141358210Y-117082455D01*
X141358216Y-117082454D01*
X141532487Y-117040615D01*
X141599591Y-117024505D01*
X141604164Y-117022611D01*
X141828928Y-116929511D01*
X141828932Y-116929509D01*
X141833502Y-116927616D01*
X142049376Y-116795328D01*
X142241898Y-116630898D01*
X142406328Y-116438376D01*
X142538616Y-116222502D01*
X142542008Y-116214315D01*
X142633611Y-115993164D01*
X142633612Y-115993162D01*
X142635505Y-115988591D01*
X142694609Y-115742403D01*
X142714474Y-115490000D01*
X142694609Y-115237597D01*
X142635505Y-114991409D01*
X142569269Y-114831500D01*
X142540511Y-114762072D01*
X142540509Y-114762068D01*
X142538616Y-114757498D01*
X142406328Y-114541624D01*
X142241898Y-114349102D01*
X142049376Y-114184672D01*
X141833502Y-114052384D01*
X141828932Y-114050491D01*
X141828928Y-114050489D01*
X141604164Y-113957389D01*
X141604162Y-113957388D01*
X141599591Y-113955495D01*
X141514968Y-113935179D01*
X141358216Y-113897546D01*
X141358210Y-113897545D01*
X141353403Y-113896391D01*
X141101000Y-113876526D01*
X140848597Y-113896391D01*
X140843790Y-113897545D01*
X140843784Y-113897546D01*
X140687032Y-113935179D01*
X140602409Y-113955495D01*
X140597838Y-113957388D01*
X140597836Y-113957389D01*
X140373072Y-114050489D01*
X140373068Y-114050491D01*
X140368498Y-114052384D01*
X140152624Y-114184672D01*
X139960102Y-114349102D01*
X139795672Y-114541624D01*
X139663384Y-114757498D01*
X139661489Y-114762072D01*
X139661169Y-114762701D01*
X139612422Y-114814317D01*
X139548901Y-114831500D01*
X139520950Y-114831500D01*
X139452829Y-114811498D01*
X139431855Y-114794595D01*
X138023929Y-113386669D01*
X146424001Y-113386669D01*
X146424371Y-113393490D01*
X146429895Y-113444352D01*
X146433521Y-113459604D01*
X146478676Y-113580054D01*
X146487214Y-113595649D01*
X146563715Y-113697724D01*
X146576276Y-113710285D01*
X146678351Y-113786786D01*
X146693946Y-113795324D01*
X146814394Y-113840478D01*
X146829649Y-113844105D01*
X146880514Y-113849631D01*
X146887328Y-113850000D01*
X147559885Y-113850000D01*
X147575124Y-113845525D01*
X147576329Y-113844135D01*
X147578000Y-113836452D01*
X147578000Y-112714115D01*
X147573525Y-112698876D01*
X147572135Y-112697671D01*
X147564452Y-112696000D01*
X146442116Y-112696000D01*
X146426877Y-112700475D01*
X146425672Y-112701865D01*
X146424001Y-112709548D01*
X146424001Y-113386669D01*
X138023929Y-113386669D01*
X135936260Y-111299000D01*
X139360526Y-111299000D01*
X139380391Y-111551403D01*
X139439495Y-111797591D01*
X139441388Y-111802162D01*
X139441389Y-111802164D01*
X139504274Y-111953981D01*
X139536384Y-112031502D01*
X139668672Y-112247376D01*
X139833102Y-112439898D01*
X140025624Y-112604328D01*
X140241498Y-112736616D01*
X140246068Y-112738509D01*
X140246072Y-112738511D01*
X140316401Y-112767642D01*
X140475409Y-112833505D01*
X140542513Y-112849615D01*
X140716784Y-112891454D01*
X140716790Y-112891455D01*
X140721597Y-112892609D01*
X140974000Y-112912474D01*
X141226403Y-112892609D01*
X141231210Y-112891455D01*
X141231216Y-112891454D01*
X141405487Y-112849615D01*
X141472591Y-112833505D01*
X141631599Y-112767642D01*
X141701928Y-112738511D01*
X141701932Y-112738509D01*
X141706502Y-112736616D01*
X141922376Y-112604328D01*
X142114898Y-112439898D01*
X142279328Y-112247376D01*
X142326815Y-112169885D01*
X146424000Y-112169885D01*
X146428475Y-112185124D01*
X146429865Y-112186329D01*
X146437548Y-112188000D01*
X147559885Y-112188000D01*
X147575124Y-112183525D01*
X147576329Y-112182135D01*
X147578000Y-112174452D01*
X147578000Y-111052116D01*
X147573525Y-111036877D01*
X147572135Y-111035672D01*
X147564452Y-111034001D01*
X146887331Y-111034001D01*
X146880510Y-111034371D01*
X146829648Y-111039895D01*
X146814396Y-111043521D01*
X146693946Y-111088676D01*
X146678351Y-111097214D01*
X146576276Y-111173715D01*
X146563715Y-111186276D01*
X146487214Y-111288351D01*
X146478676Y-111303946D01*
X146433522Y-111424394D01*
X146429895Y-111439649D01*
X146424369Y-111490514D01*
X146424000Y-111497328D01*
X146424000Y-112169885D01*
X142326815Y-112169885D01*
X142411616Y-112031502D01*
X142443727Y-111953981D01*
X142506611Y-111802164D01*
X142506612Y-111802162D01*
X142508505Y-111797591D01*
X142567609Y-111551403D01*
X142587474Y-111299000D01*
X142567609Y-111046597D01*
X142565660Y-111038475D01*
X142509660Y-110805221D01*
X142508505Y-110800409D01*
X142411616Y-110566498D01*
X142279328Y-110350624D01*
X142114898Y-110158102D01*
X141922376Y-109993672D01*
X141706502Y-109861384D01*
X141701932Y-109859491D01*
X141701928Y-109859489D01*
X141477164Y-109766389D01*
X141477162Y-109766388D01*
X141472591Y-109764495D01*
X141349268Y-109734888D01*
X141231216Y-109706546D01*
X141231210Y-109706545D01*
X141226403Y-109705391D01*
X140974000Y-109685526D01*
X140721597Y-109705391D01*
X140716790Y-109706545D01*
X140716784Y-109706546D01*
X140598732Y-109734888D01*
X140475409Y-109764495D01*
X140470838Y-109766388D01*
X140470836Y-109766389D01*
X140246072Y-109859489D01*
X140246068Y-109859491D01*
X140241498Y-109861384D01*
X140025624Y-109993672D01*
X139833102Y-110158102D01*
X139668672Y-110350624D01*
X139536384Y-110566498D01*
X139439495Y-110800409D01*
X139438340Y-110805221D01*
X139382341Y-111038475D01*
X139380391Y-111046597D01*
X139360526Y-111299000D01*
X135936260Y-111299000D01*
X132459405Y-107822145D01*
X132425379Y-107759833D01*
X132422500Y-107733050D01*
X132422500Y-107375431D01*
X139384512Y-107375431D01*
X139438817Y-107601624D01*
X139441866Y-107611009D01*
X139534936Y-107835700D01*
X139539417Y-107844494D01*
X139666496Y-108051867D01*
X139672289Y-108059840D01*
X139830249Y-108244787D01*
X139837213Y-108251751D01*
X140022160Y-108409711D01*
X140030133Y-108415504D01*
X140237506Y-108542583D01*
X140246300Y-108547064D01*
X140470991Y-108640134D01*
X140480376Y-108643183D01*
X140702385Y-108696483D01*
X140716470Y-108695778D01*
X140720000Y-108686899D01*
X140720000Y-108682597D01*
X141228000Y-108682597D01*
X141231973Y-108696128D01*
X141241431Y-108697488D01*
X141467624Y-108643183D01*
X141477009Y-108640134D01*
X141701700Y-108547064D01*
X141710494Y-108542583D01*
X141917867Y-108415504D01*
X141925840Y-108409711D01*
X142110787Y-108251751D01*
X142117751Y-108244787D01*
X142275711Y-108059840D01*
X142281504Y-108051867D01*
X142408583Y-107844494D01*
X142413064Y-107835700D01*
X142506134Y-107611009D01*
X142509183Y-107601624D01*
X142562483Y-107379615D01*
X142561778Y-107365530D01*
X142552899Y-107362000D01*
X141246115Y-107362000D01*
X141230876Y-107366475D01*
X141229671Y-107367865D01*
X141228000Y-107375548D01*
X141228000Y-108682597D01*
X140720000Y-108682597D01*
X140720000Y-107380115D01*
X140715525Y-107364876D01*
X140714135Y-107363671D01*
X140706452Y-107362000D01*
X139399403Y-107362000D01*
X139385872Y-107365973D01*
X139384512Y-107375431D01*
X132422500Y-107375431D01*
X132422500Y-106836385D01*
X139385517Y-106836385D01*
X139386222Y-106850470D01*
X139395101Y-106854000D01*
X140701885Y-106854000D01*
X140717124Y-106849525D01*
X140718329Y-106848135D01*
X140720000Y-106840452D01*
X140720000Y-106835885D01*
X141228000Y-106835885D01*
X141232475Y-106851124D01*
X141233865Y-106852329D01*
X141241548Y-106854000D01*
X142548597Y-106854000D01*
X142562128Y-106850027D01*
X142563488Y-106840569D01*
X142509183Y-106614376D01*
X142506134Y-106604991D01*
X142413064Y-106380300D01*
X142408583Y-106371506D01*
X142281504Y-106164133D01*
X142275711Y-106156160D01*
X142117751Y-105971213D01*
X142110787Y-105964249D01*
X141925840Y-105806289D01*
X141917867Y-105800496D01*
X141710494Y-105673417D01*
X141701700Y-105668936D01*
X141477009Y-105575866D01*
X141467624Y-105572817D01*
X141245615Y-105519517D01*
X141231530Y-105520222D01*
X141228000Y-105529101D01*
X141228000Y-106835885D01*
X140720000Y-106835885D01*
X140720000Y-105533403D01*
X140716027Y-105519872D01*
X140706569Y-105518512D01*
X140480376Y-105572817D01*
X140470991Y-105575866D01*
X140246300Y-105668936D01*
X140237506Y-105673417D01*
X140030133Y-105800496D01*
X140022160Y-105806289D01*
X139837213Y-105964249D01*
X139830249Y-105971213D01*
X139672289Y-106156160D01*
X139666496Y-106164133D01*
X139539417Y-106371506D01*
X139534936Y-106380300D01*
X139441866Y-106604991D01*
X139438817Y-106614376D01*
X139385517Y-106836385D01*
X132422500Y-106836385D01*
X132422500Y-105959866D01*
X132415745Y-105897684D01*
X132364615Y-105761295D01*
X132277261Y-105644739D01*
X132160705Y-105557385D01*
X132024316Y-105506255D01*
X131962134Y-105499500D01*
X129665866Y-105499500D01*
X129603684Y-105506255D01*
X129467295Y-105557385D01*
X129350739Y-105644739D01*
X129263385Y-105761295D01*
X129212255Y-105897684D01*
X129205500Y-105959866D01*
X129205500Y-108256134D01*
X129212255Y-108318316D01*
X129263385Y-108454705D01*
X129350739Y-108571261D01*
X129467295Y-108658615D01*
X129603684Y-108709745D01*
X129665866Y-108716500D01*
X131439050Y-108716500D01*
X131507171Y-108736502D01*
X131528145Y-108753405D01*
X132356653Y-109581913D01*
X132390679Y-109644225D01*
X132385614Y-109715040D01*
X132343067Y-109771876D01*
X132276547Y-109796687D01*
X132207173Y-109781596D01*
X132191993Y-109771834D01*
X132167892Y-109753771D01*
X132167890Y-109753770D01*
X132160705Y-109748385D01*
X132024316Y-109697255D01*
X131962134Y-109690500D01*
X129665866Y-109690500D01*
X129603684Y-109697255D01*
X129467295Y-109748385D01*
X129350739Y-109835739D01*
X129263385Y-109952295D01*
X129212255Y-110088684D01*
X129205500Y-110150866D01*
X129205500Y-112447134D01*
X128800000Y-112447134D01*
X128800000Y-104065134D01*
X129332500Y-104065134D01*
X129339255Y-104127316D01*
X129390385Y-104263705D01*
X129477739Y-104380261D01*
X129594295Y-104467615D01*
X129730684Y-104518745D01*
X129792866Y-104525500D01*
X132089134Y-104525500D01*
X132151316Y-104518745D01*
X132287705Y-104467615D01*
X132404261Y-104380261D01*
X132491615Y-104263705D01*
X132542745Y-104127316D01*
X132549500Y-104065134D01*
X132549500Y-103184431D01*
X139511512Y-103184431D01*
X139565817Y-103410624D01*
X139568866Y-103420009D01*
X139661936Y-103644700D01*
X139666417Y-103653494D01*
X139793496Y-103860867D01*
X139799289Y-103868840D01*
X139957249Y-104053787D01*
X139964213Y-104060751D01*
X140149160Y-104218711D01*
X140157133Y-104224504D01*
X140364506Y-104351583D01*
X140373300Y-104356064D01*
X140597991Y-104449134D01*
X140607376Y-104452183D01*
X140829385Y-104505483D01*
X140843470Y-104504778D01*
X140847000Y-104495899D01*
X140847000Y-104491597D01*
X141355000Y-104491597D01*
X141358973Y-104505128D01*
X141368431Y-104506488D01*
X141594624Y-104452183D01*
X141604009Y-104449134D01*
X141828700Y-104356064D01*
X141837494Y-104351583D01*
X142044867Y-104224504D01*
X142052840Y-104218711D01*
X142237787Y-104060751D01*
X142244751Y-104053787D01*
X142402711Y-103868840D01*
X142408504Y-103860867D01*
X142535583Y-103653494D01*
X142540064Y-103644700D01*
X142633134Y-103420009D01*
X142636183Y-103410624D01*
X142689483Y-103188615D01*
X142688778Y-103174530D01*
X142679899Y-103171000D01*
X141373115Y-103171000D01*
X141357876Y-103175475D01*
X141356671Y-103176865D01*
X141355000Y-103184548D01*
X141355000Y-104491597D01*
X140847000Y-104491597D01*
X140847000Y-103189115D01*
X140842525Y-103173876D01*
X140841135Y-103172671D01*
X140833452Y-103171000D01*
X139526403Y-103171000D01*
X139512872Y-103174973D01*
X139511512Y-103184431D01*
X132549500Y-103184431D01*
X132549500Y-102645385D01*
X139512517Y-102645385D01*
X139513222Y-102659470D01*
X139522101Y-102663000D01*
X140828885Y-102663000D01*
X140844124Y-102658525D01*
X140845329Y-102657135D01*
X140847000Y-102649452D01*
X140847000Y-102644885D01*
X141355000Y-102644885D01*
X141359475Y-102660124D01*
X141360865Y-102661329D01*
X141368548Y-102663000D01*
X142675597Y-102663000D01*
X142689128Y-102659027D01*
X142690488Y-102649569D01*
X142636183Y-102423376D01*
X142633134Y-102413991D01*
X142540064Y-102189300D01*
X142535583Y-102180506D01*
X142408504Y-101973133D01*
X142402711Y-101965160D01*
X142244751Y-101780213D01*
X142237787Y-101773249D01*
X142052840Y-101615289D01*
X142044867Y-101609496D01*
X141837494Y-101482417D01*
X141828700Y-101477936D01*
X141604009Y-101384866D01*
X141594624Y-101381817D01*
X141372615Y-101328517D01*
X141358530Y-101329222D01*
X141355000Y-101338101D01*
X141355000Y-102644885D01*
X140847000Y-102644885D01*
X140847000Y-101342403D01*
X140843027Y-101328872D01*
X140833569Y-101327512D01*
X140607376Y-101381817D01*
X140597991Y-101384866D01*
X140373300Y-101477936D01*
X140364506Y-101482417D01*
X140157133Y-101609496D01*
X140149160Y-101615289D01*
X139964213Y-101773249D01*
X139957249Y-101780213D01*
X139799289Y-101965160D01*
X139793496Y-101973133D01*
X139666417Y-102180506D01*
X139661936Y-102189300D01*
X139568866Y-102413991D01*
X139565817Y-102423376D01*
X139512517Y-102645385D01*
X132549500Y-102645385D01*
X132549500Y-101768866D01*
X132542745Y-101706684D01*
X132491615Y-101570295D01*
X132404261Y-101453739D01*
X132287705Y-101366385D01*
X132151316Y-101315255D01*
X132089134Y-101308500D01*
X129792866Y-101308500D01*
X129730684Y-101315255D01*
X129594295Y-101366385D01*
X129477739Y-101453739D01*
X129390385Y-101570295D01*
X129339255Y-101706684D01*
X129332500Y-101768866D01*
X129332500Y-104065134D01*
X128800000Y-104065134D01*
X128800000Y-100569134D01*
X147920500Y-100569134D01*
X147927255Y-100631316D01*
X147978385Y-100767705D01*
X148065739Y-100884261D01*
X148182295Y-100971615D01*
X148318684Y-101022745D01*
X148380866Y-101029500D01*
X150077134Y-101029500D01*
X150139316Y-101022745D01*
X150275705Y-100971615D01*
X150392261Y-100884261D01*
X150479615Y-100767705D01*
X150530745Y-100631316D01*
X150537500Y-100569134D01*
X150537500Y-98872866D01*
X150530745Y-98810684D01*
X150479615Y-98674295D01*
X150392261Y-98557739D01*
X150275705Y-98470385D01*
X150139316Y-98419255D01*
X150077134Y-98412500D01*
X148380866Y-98412500D01*
X148318684Y-98419255D01*
X148182295Y-98470385D01*
X148065739Y-98557739D01*
X147978385Y-98674295D01*
X147927255Y-98810684D01*
X147920500Y-98872866D01*
X147920500Y-100569134D01*
X128800000Y-100569134D01*
X128800000Y-97290134D01*
X130115000Y-97290134D01*
X130121755Y-97352316D01*
X130172885Y-97488705D01*
X130260239Y-97605261D01*
X130376795Y-97692615D01*
X130513184Y-97743745D01*
X130575366Y-97750500D01*
X132576634Y-97750500D01*
X132638816Y-97743745D01*
X132775205Y-97692615D01*
X132891761Y-97605261D01*
X132979115Y-97488705D01*
X132986758Y-97468317D01*
X133029401Y-97411553D01*
X133095962Y-97386854D01*
X133165311Y-97402062D01*
X133182832Y-97413666D01*
X133300944Y-97506945D01*
X133309531Y-97512650D01*
X133510722Y-97623714D01*
X133520134Y-97627944D01*
X133736768Y-97704659D01*
X133746739Y-97707293D01*
X133844163Y-97724647D01*
X133857460Y-97723187D01*
X133862000Y-97708630D01*
X133862000Y-94773904D01*
X133858082Y-94760560D01*
X133843806Y-94758573D01*
X133781485Y-94768110D01*
X133771457Y-94770499D01*
X133553012Y-94841898D01*
X133543503Y-94845895D01*
X133339656Y-94952011D01*
X133330939Y-94957500D01*
X133179901Y-95070902D01*
X133113416Y-95095807D01*
X133044020Y-95080814D01*
X132993747Y-95030684D01*
X132986268Y-95014375D01*
X132979115Y-94995295D01*
X132891761Y-94878739D01*
X132775205Y-94791385D01*
X132638816Y-94740255D01*
X132576634Y-94733500D01*
X130575366Y-94733500D01*
X130513184Y-94740255D01*
X130376795Y-94791385D01*
X130260239Y-94878739D01*
X130172885Y-94995295D01*
X130121755Y-95131684D01*
X130115000Y-95193866D01*
X130115000Y-97290134D01*
X128800000Y-97290134D01*
X128800000Y-86947134D01*
X130067500Y-86947134D01*
X130074255Y-87009316D01*
X130125385Y-87145705D01*
X130212739Y-87262261D01*
X130329295Y-87349615D01*
X130465684Y-87400745D01*
X130527866Y-87407500D01*
X132624134Y-87407500D01*
X132686316Y-87400745D01*
X132822705Y-87349615D01*
X132939261Y-87262261D01*
X133026615Y-87145705D01*
X133031876Y-87131670D01*
X135708160Y-87131670D01*
X135713887Y-87139320D01*
X135885042Y-87244205D01*
X135893837Y-87248687D01*
X136103988Y-87335734D01*
X136113373Y-87338783D01*
X136334554Y-87391885D01*
X136344301Y-87393428D01*
X136571070Y-87411275D01*
X136580930Y-87411275D01*
X136807699Y-87393428D01*
X136817446Y-87391885D01*
X137038627Y-87338783D01*
X137048012Y-87335734D01*
X137258163Y-87248687D01*
X137266958Y-87244205D01*
X137434445Y-87141568D01*
X137443907Y-87131110D01*
X137440124Y-87122334D01*
X136588812Y-86271022D01*
X136574868Y-86263408D01*
X136573035Y-86263539D01*
X136566420Y-86267790D01*
X135714920Y-87119290D01*
X135708160Y-87131670D01*
X133031876Y-87131670D01*
X133077745Y-87009316D01*
X133084500Y-86947134D01*
X133084500Y-85903930D01*
X135063725Y-85903930D01*
X135081572Y-86130699D01*
X135083115Y-86140446D01*
X135136217Y-86361627D01*
X135139266Y-86371012D01*
X135226313Y-86581163D01*
X135230795Y-86589958D01*
X135333432Y-86757445D01*
X135343890Y-86766907D01*
X135352666Y-86763124D01*
X136203978Y-85911812D01*
X136210356Y-85900132D01*
X136940408Y-85900132D01*
X136940539Y-85901965D01*
X136944790Y-85908580D01*
X137796290Y-86760080D01*
X137808670Y-86766840D01*
X137816320Y-86761113D01*
X137921205Y-86589958D01*
X137925687Y-86581163D01*
X138012734Y-86371012D01*
X138015783Y-86361627D01*
X138068885Y-86140446D01*
X138070428Y-86130699D01*
X138088275Y-85903930D01*
X138088275Y-85894070D01*
X138070428Y-85667301D01*
X138068885Y-85657554D01*
X138015783Y-85436373D01*
X138012734Y-85426988D01*
X137925687Y-85216837D01*
X137921205Y-85208042D01*
X137818568Y-85040555D01*
X137808110Y-85031093D01*
X137799334Y-85034876D01*
X136948022Y-85886188D01*
X136940408Y-85900132D01*
X136210356Y-85900132D01*
X136211592Y-85897868D01*
X136211461Y-85896035D01*
X136207210Y-85889420D01*
X135355710Y-85037920D01*
X135343330Y-85031160D01*
X135335680Y-85036887D01*
X135230795Y-85208042D01*
X135226313Y-85216837D01*
X135139266Y-85426988D01*
X135136217Y-85436373D01*
X135083115Y-85657554D01*
X135081572Y-85667301D01*
X135063725Y-85894070D01*
X135063725Y-85903930D01*
X133084500Y-85903930D01*
X133084500Y-84850866D01*
X133077745Y-84788684D01*
X133032086Y-84666890D01*
X135708093Y-84666890D01*
X135711876Y-84675666D01*
X136563188Y-85526978D01*
X136577132Y-85534592D01*
X136578965Y-85534461D01*
X136585580Y-85530210D01*
X137437080Y-84678710D01*
X137443840Y-84666330D01*
X137438113Y-84658680D01*
X137266958Y-84553795D01*
X137258163Y-84549313D01*
X137048012Y-84462266D01*
X137038627Y-84459217D01*
X136817446Y-84406115D01*
X136807699Y-84404572D01*
X136580930Y-84386725D01*
X136571070Y-84386725D01*
X136344301Y-84404572D01*
X136334554Y-84406115D01*
X136113373Y-84459217D01*
X136103988Y-84462266D01*
X135893837Y-84549313D01*
X135885042Y-84553795D01*
X135717555Y-84656432D01*
X135708093Y-84666890D01*
X133032086Y-84666890D01*
X133026615Y-84652295D01*
X132939261Y-84535739D01*
X132822705Y-84448385D01*
X132686316Y-84397255D01*
X132624134Y-84390500D01*
X130527866Y-84390500D01*
X130465684Y-84397255D01*
X130329295Y-84448385D01*
X130212739Y-84535739D01*
X130125385Y-84652295D01*
X130074255Y-84788684D01*
X130067500Y-84850866D01*
X130067500Y-86947134D01*
X128800000Y-86947134D01*
X128800000Y-84334134D01*
X140554500Y-84334134D01*
X140561255Y-84396316D01*
X140612385Y-84532705D01*
X140699739Y-84649261D01*
X140816295Y-84736615D01*
X140952684Y-84787745D01*
X141014866Y-84794500D01*
X142711134Y-84794500D01*
X142773316Y-84787745D01*
X142909705Y-84736615D01*
X142955502Y-84702292D01*
X143019078Y-84654645D01*
X143019081Y-84654642D01*
X143026261Y-84649261D01*
X143031642Y-84642081D01*
X143037993Y-84635730D01*
X143040135Y-84637872D01*
X143084846Y-84604436D01*
X143155664Y-84599406D01*
X143197035Y-84617523D01*
X143197232Y-84617182D01*
X143200298Y-84618952D01*
X143201090Y-84619299D01*
X143201989Y-84619929D01*
X143211489Y-84625414D01*
X143408947Y-84717490D01*
X143419239Y-84721236D01*
X143629688Y-84777625D01*
X143640481Y-84779528D01*
X143857525Y-84798517D01*
X143868475Y-84798517D01*
X144085519Y-84779528D01*
X144096312Y-84777625D01*
X144306761Y-84721236D01*
X144317053Y-84717490D01*
X144514511Y-84625414D01*
X144524006Y-84619931D01*
X144576048Y-84583491D01*
X144584424Y-84573012D01*
X144577356Y-84559566D01*
X143592885Y-83575095D01*
X143558859Y-83512783D01*
X143560694Y-83487132D01*
X144227408Y-83487132D01*
X144227539Y-83488965D01*
X144231790Y-83495580D01*
X144937287Y-84201077D01*
X144949062Y-84207507D01*
X144961077Y-84198211D01*
X144996931Y-84147006D01*
X145002414Y-84137511D01*
X145094490Y-83940053D01*
X145098236Y-83929761D01*
X145154625Y-83719312D01*
X145156528Y-83708519D01*
X145175517Y-83491475D01*
X145175517Y-83480525D01*
X145156528Y-83263481D01*
X145154625Y-83252688D01*
X145098236Y-83042239D01*
X145094490Y-83031947D01*
X145002414Y-82834489D01*
X144996931Y-82824994D01*
X144960491Y-82772952D01*
X144950012Y-82764576D01*
X144936566Y-82771644D01*
X144235022Y-83473188D01*
X144227408Y-83487132D01*
X143560694Y-83487132D01*
X143563924Y-83441968D01*
X143592885Y-83396905D01*
X144578077Y-82411713D01*
X144584507Y-82399938D01*
X144575211Y-82387923D01*
X144524006Y-82352069D01*
X144514511Y-82346586D01*
X144317053Y-82254510D01*
X144306761Y-82250764D01*
X144096312Y-82194375D01*
X144085519Y-82192472D01*
X143868475Y-82173483D01*
X143857525Y-82173483D01*
X143640481Y-82192472D01*
X143629688Y-82194375D01*
X143419239Y-82250764D01*
X143408947Y-82254510D01*
X143211489Y-82346586D01*
X143201989Y-82352071D01*
X143201090Y-82352701D01*
X143200630Y-82352856D01*
X143197232Y-82354818D01*
X143196838Y-82354135D01*
X143133816Y-82375388D01*
X143064956Y-82358102D01*
X143039197Y-82335066D01*
X143037993Y-82336270D01*
X143031642Y-82329919D01*
X143026261Y-82322739D01*
X143019081Y-82317358D01*
X143019078Y-82317355D01*
X142930225Y-82250764D01*
X142909705Y-82235385D01*
X142773316Y-82184255D01*
X142711134Y-82177500D01*
X141014866Y-82177500D01*
X140952684Y-82184255D01*
X140816295Y-82235385D01*
X140699739Y-82322739D01*
X140612385Y-82439295D01*
X140561255Y-82575684D01*
X140554500Y-82637866D01*
X140554500Y-84334134D01*
X128800000Y-84334134D01*
X128800000Y-80437500D01*
X128820002Y-80369379D01*
X128873658Y-80322886D01*
X128926000Y-80311500D01*
X157865500Y-80311500D01*
X157933621Y-80331502D01*
G37*
%TD.AperFunction*%
%TD*%
M02*
