%TF.GenerationSoftware,KiCad,Pcbnew,6.0.6*%
%TF.CreationDate,2022-09-01T23:29:10+01:00*%
%TF.ProjectId,breadbored power supply,62726561-6462-46f7-9265-6420706f7765,rev?*%
%TF.SameCoordinates,Original*%
%TF.FileFunction,Legend,Top*%
%TF.FilePolarity,Positive*%
%FSLAX46Y46*%
G04 Gerber Fmt 4.6, Leading zero omitted, Abs format (unit mm)*
G04 Created by KiCad (PCBNEW 6.0.6) date 2022-09-01 23:29:10*
%MOMM*%
%LPD*%
G01*
G04 APERTURE LIST*
%ADD10C,0.150000*%
%ADD11C,0.120000*%
G04 APERTURE END LIST*
D10*
X145952380Y-127585714D02*
X145952380Y-128061904D01*
X146428571Y-128109523D01*
X146380952Y-128061904D01*
X146333333Y-127966666D01*
X146333333Y-127728571D01*
X146380952Y-127633333D01*
X146428571Y-127585714D01*
X146523809Y-127538095D01*
X146761904Y-127538095D01*
X146857142Y-127585714D01*
X146904761Y-127633333D01*
X146952380Y-127728571D01*
X146952380Y-127966666D01*
X146904761Y-128061904D01*
X146857142Y-128109523D01*
X145952380Y-126680952D02*
X145952380Y-126871428D01*
X146000000Y-126966666D01*
X146047619Y-127014285D01*
X146190476Y-127109523D01*
X146380952Y-127157142D01*
X146761904Y-127157142D01*
X146857142Y-127109523D01*
X146904761Y-127061904D01*
X146952380Y-126966666D01*
X146952380Y-126776190D01*
X146904761Y-126680952D01*
X146857142Y-126633333D01*
X146761904Y-126585714D01*
X146523809Y-126585714D01*
X146428571Y-126633333D01*
X146380952Y-126680952D01*
X146333333Y-126776190D01*
X146333333Y-126966666D01*
X146380952Y-127061904D01*
X146428571Y-127109523D01*
X146523809Y-127157142D01*
X145952380Y-125966666D02*
X145952380Y-125871428D01*
X146000000Y-125776190D01*
X146047619Y-125728571D01*
X146142857Y-125680952D01*
X146333333Y-125633333D01*
X146571428Y-125633333D01*
X146761904Y-125680952D01*
X146857142Y-125728571D01*
X146904761Y-125776190D01*
X146952380Y-125871428D01*
X146952380Y-125966666D01*
X146904761Y-126061904D01*
X146857142Y-126109523D01*
X146761904Y-126157142D01*
X146571428Y-126204761D01*
X146333333Y-126204761D01*
X146142857Y-126157142D01*
X146047619Y-126109523D01*
X146000000Y-126061904D01*
X145952380Y-125966666D01*
X146952380Y-125061904D02*
X146904761Y-125157142D01*
X146857142Y-125204761D01*
X146761904Y-125252380D01*
X146476190Y-125252380D01*
X146380952Y-125204761D01*
X146333333Y-125157142D01*
X146285714Y-125061904D01*
X146285714Y-124919047D01*
X146333333Y-124823809D01*
X146380952Y-124776190D01*
X146476190Y-124728571D01*
X146761904Y-124728571D01*
X146857142Y-124776190D01*
X146904761Y-124823809D01*
X146952380Y-124919047D01*
X146952380Y-125061904D01*
X146952380Y-124300000D02*
X145952380Y-124300000D01*
X146952380Y-123871428D02*
X146428571Y-123871428D01*
X146333333Y-123919047D01*
X146285714Y-124014285D01*
X146285714Y-124157142D01*
X146333333Y-124252380D01*
X146380952Y-124300000D01*
X146952380Y-123395238D02*
X146285714Y-123395238D01*
X146380952Y-123395238D02*
X146333333Y-123347619D01*
X146285714Y-123252380D01*
X146285714Y-123109523D01*
X146333333Y-123014285D01*
X146428571Y-122966666D01*
X146952380Y-122966666D01*
X146428571Y-122966666D02*
X146333333Y-122919047D01*
X146285714Y-122823809D01*
X146285714Y-122680952D01*
X146333333Y-122585714D01*
X146428571Y-122538095D01*
X146952380Y-122538095D01*
X139952380Y-96885714D02*
X139952380Y-97361904D01*
X140428571Y-97409523D01*
X140380952Y-97361904D01*
X140333333Y-97266666D01*
X140333333Y-97028571D01*
X140380952Y-96933333D01*
X140428571Y-96885714D01*
X140523809Y-96838095D01*
X140761904Y-96838095D01*
X140857142Y-96885714D01*
X140904761Y-96933333D01*
X140952380Y-97028571D01*
X140952380Y-97266666D01*
X140904761Y-97361904D01*
X140857142Y-97409523D01*
X139952380Y-95980952D02*
X139952380Y-96171428D01*
X140000000Y-96266666D01*
X140047619Y-96314285D01*
X140190476Y-96409523D01*
X140380952Y-96457142D01*
X140761904Y-96457142D01*
X140857142Y-96409523D01*
X140904761Y-96361904D01*
X140952380Y-96266666D01*
X140952380Y-96076190D01*
X140904761Y-95980952D01*
X140857142Y-95933333D01*
X140761904Y-95885714D01*
X140523809Y-95885714D01*
X140428571Y-95933333D01*
X140380952Y-95980952D01*
X140333333Y-96076190D01*
X140333333Y-96266666D01*
X140380952Y-96361904D01*
X140428571Y-96409523D01*
X140523809Y-96457142D01*
X139952380Y-95266666D02*
X139952380Y-95171428D01*
X140000000Y-95076190D01*
X140047619Y-95028571D01*
X140142857Y-94980952D01*
X140333333Y-94933333D01*
X140571428Y-94933333D01*
X140761904Y-94980952D01*
X140857142Y-95028571D01*
X140904761Y-95076190D01*
X140952380Y-95171428D01*
X140952380Y-95266666D01*
X140904761Y-95361904D01*
X140857142Y-95409523D01*
X140761904Y-95457142D01*
X140571428Y-95504761D01*
X140333333Y-95504761D01*
X140142857Y-95457142D01*
X140047619Y-95409523D01*
X140000000Y-95361904D01*
X139952380Y-95266666D01*
X140952380Y-94361904D02*
X140904761Y-94457142D01*
X140857142Y-94504761D01*
X140761904Y-94552380D01*
X140476190Y-94552380D01*
X140380952Y-94504761D01*
X140333333Y-94457142D01*
X140285714Y-94361904D01*
X140285714Y-94219047D01*
X140333333Y-94123809D01*
X140380952Y-94076190D01*
X140476190Y-94028571D01*
X140761904Y-94028571D01*
X140857142Y-94076190D01*
X140904761Y-94123809D01*
X140952380Y-94219047D01*
X140952380Y-94361904D01*
X140952380Y-93600000D02*
X139952380Y-93600000D01*
X140952380Y-93171428D02*
X140428571Y-93171428D01*
X140333333Y-93219047D01*
X140285714Y-93314285D01*
X140285714Y-93457142D01*
X140333333Y-93552380D01*
X140380952Y-93600000D01*
X140952380Y-92695238D02*
X140285714Y-92695238D01*
X140380952Y-92695238D02*
X140333333Y-92647619D01*
X140285714Y-92552380D01*
X140285714Y-92409523D01*
X140333333Y-92314285D01*
X140428571Y-92266666D01*
X140952380Y-92266666D01*
X140428571Y-92266666D02*
X140333333Y-92219047D01*
X140285714Y-92123809D01*
X140285714Y-91980952D01*
X140333333Y-91885714D01*
X140428571Y-91838095D01*
X140952380Y-91838095D01*
X141976190Y-86985714D02*
X141976190Y-87652380D01*
X141738095Y-86604761D02*
X141500000Y-87319047D01*
X142119047Y-87319047D01*
X142404761Y-86652380D02*
X143071428Y-86652380D01*
X142642857Y-87652380D01*
X143880952Y-86985714D02*
X143880952Y-87652380D01*
X143452380Y-86985714D02*
X143452380Y-87509523D01*
X143500000Y-87604761D01*
X143595238Y-87652380D01*
X143738095Y-87652380D01*
X143833333Y-87604761D01*
X143880952Y-87557142D01*
X144214285Y-86985714D02*
X144595238Y-86985714D01*
X144357142Y-87652380D02*
X144357142Y-86795238D01*
X144404761Y-86700000D01*
X144500000Y-86652380D01*
X144595238Y-86652380D01*
X129785714Y-92000000D02*
X130452380Y-92000000D01*
X129404761Y-92238095D02*
X130119047Y-92476190D01*
X130119047Y-91857142D01*
X129452380Y-91571428D02*
X129452380Y-90904761D01*
X130452380Y-91333333D01*
X129452380Y-90333333D02*
X129452380Y-90238095D01*
X129500000Y-90142857D01*
X129547619Y-90095238D01*
X129642857Y-90047619D01*
X129833333Y-90000000D01*
X130071428Y-90000000D01*
X130261904Y-90047619D01*
X130357142Y-90095238D01*
X130404761Y-90142857D01*
X130452380Y-90238095D01*
X130452380Y-90333333D01*
X130404761Y-90428571D01*
X130357142Y-90476190D01*
X130261904Y-90523809D01*
X130071428Y-90571428D01*
X129833333Y-90571428D01*
X129642857Y-90523809D01*
X129547619Y-90476190D01*
X129500000Y-90428571D01*
X129452380Y-90333333D01*
X129785714Y-89142857D02*
X130452380Y-89142857D01*
X129785714Y-89571428D02*
X130309523Y-89571428D01*
X130404761Y-89523809D01*
X130452380Y-89428571D01*
X130452380Y-89285714D01*
X130404761Y-89190476D01*
X130357142Y-89142857D01*
X129785714Y-88809523D02*
X129785714Y-88428571D01*
X130452380Y-88666666D02*
X129595238Y-88666666D01*
X129500000Y-88619047D01*
X129452380Y-88523809D01*
X129452380Y-88428571D01*
X138733333Y-137002380D02*
X139352380Y-137002380D01*
X139019047Y-137383333D01*
X139161904Y-137383333D01*
X139257142Y-137430952D01*
X139304761Y-137478571D01*
X139352380Y-137573809D01*
X139352380Y-137811904D01*
X139304761Y-137907142D01*
X139257142Y-137954761D01*
X139161904Y-138002380D01*
X138876190Y-138002380D01*
X138780952Y-137954761D01*
X138733333Y-137907142D01*
X139971428Y-137002380D02*
X140066666Y-137002380D01*
X140161904Y-137050000D01*
X140209523Y-137097619D01*
X140257142Y-137192857D01*
X140304761Y-137383333D01*
X140304761Y-137621428D01*
X140257142Y-137811904D01*
X140209523Y-137907142D01*
X140161904Y-137954761D01*
X140066666Y-138002380D01*
X139971428Y-138002380D01*
X139876190Y-137954761D01*
X139828571Y-137907142D01*
X139780952Y-137811904D01*
X139733333Y-137621428D01*
X139733333Y-137383333D01*
X139780952Y-137192857D01*
X139828571Y-137097619D01*
X139876190Y-137050000D01*
X139971428Y-137002380D01*
X140733333Y-137907142D02*
X140780952Y-137954761D01*
X140733333Y-138002380D01*
X140685714Y-137954761D01*
X140733333Y-137907142D01*
X140733333Y-138002380D01*
X141161904Y-137097619D02*
X141209523Y-137050000D01*
X141304761Y-137002380D01*
X141542857Y-137002380D01*
X141638095Y-137050000D01*
X141685714Y-137097619D01*
X141733333Y-137192857D01*
X141733333Y-137288095D01*
X141685714Y-137430952D01*
X141114285Y-138002380D01*
X141733333Y-138002380D01*
X142352380Y-137002380D02*
X142447619Y-137002380D01*
X142542857Y-137050000D01*
X142590476Y-137097619D01*
X142638095Y-137192857D01*
X142685714Y-137383333D01*
X142685714Y-137621428D01*
X142638095Y-137811904D01*
X142590476Y-137907142D01*
X142542857Y-137954761D01*
X142447619Y-138002380D01*
X142352380Y-138002380D01*
X142257142Y-137954761D01*
X142209523Y-137907142D01*
X142161904Y-137811904D01*
X142114285Y-137621428D01*
X142114285Y-137383333D01*
X142161904Y-137192857D01*
X142209523Y-137097619D01*
X142257142Y-137050000D01*
X142352380Y-137002380D01*
X143304761Y-137002380D02*
X143400000Y-137002380D01*
X143495238Y-137050000D01*
X143542857Y-137097619D01*
X143590476Y-137192857D01*
X143638095Y-137383333D01*
X143638095Y-137621428D01*
X143590476Y-137811904D01*
X143542857Y-137907142D01*
X143495238Y-137954761D01*
X143400000Y-138002380D01*
X143304761Y-138002380D01*
X143209523Y-137954761D01*
X143161904Y-137907142D01*
X143114285Y-137811904D01*
X143066666Y-137621428D01*
X143066666Y-137383333D01*
X143114285Y-137192857D01*
X143161904Y-137097619D01*
X143209523Y-137050000D01*
X143304761Y-137002380D01*
X144257142Y-137002380D02*
X144352380Y-137002380D01*
X144447619Y-137050000D01*
X144495238Y-137097619D01*
X144542857Y-137192857D01*
X144590476Y-137383333D01*
X144590476Y-137621428D01*
X144542857Y-137811904D01*
X144495238Y-137907142D01*
X144447619Y-137954761D01*
X144352380Y-138002380D01*
X144257142Y-138002380D01*
X144161904Y-137954761D01*
X144114285Y-137907142D01*
X144066666Y-137811904D01*
X144019047Y-137621428D01*
X144019047Y-137383333D01*
X144066666Y-137192857D01*
X144114285Y-137097619D01*
X144161904Y-137050000D01*
X144257142Y-137002380D01*
X145780952Y-138002380D02*
X145780952Y-137335714D01*
X145780952Y-137430952D02*
X145828571Y-137383333D01*
X145923809Y-137335714D01*
X146066666Y-137335714D01*
X146161904Y-137383333D01*
X146209523Y-137478571D01*
X146209523Y-138002380D01*
X146209523Y-137478571D02*
X146257142Y-137383333D01*
X146352380Y-137335714D01*
X146495238Y-137335714D01*
X146590476Y-137383333D01*
X146638095Y-137478571D01*
X146638095Y-138002380D01*
X147114285Y-138002380D02*
X147114285Y-137335714D01*
X147114285Y-137430952D02*
X147161904Y-137383333D01*
X147257142Y-137335714D01*
X147400000Y-137335714D01*
X147495238Y-137383333D01*
X147542857Y-137478571D01*
X147542857Y-138002380D01*
X147542857Y-137478571D02*
X147590476Y-137383333D01*
X147685714Y-137335714D01*
X147828571Y-137335714D01*
X147923809Y-137383333D01*
X147971428Y-137478571D01*
X147971428Y-138002380D01*
X128300000Y-130600000D02*
X128300000Y-139286420D01*
X158500000Y-130600000D02*
X158500000Y-139286420D01*
X128300000Y-138700000D02*
X158500000Y-138700000D01*
X128300000Y-138700000D02*
X158500000Y-138700000D01*
X128300000Y-138700000D02*
X129426504Y-139286421D01*
X128300000Y-138700000D02*
X129426504Y-138113579D01*
X158500000Y-138700000D02*
X157373496Y-138113579D01*
X158500000Y-138700000D02*
X157373496Y-139286421D01*
X165002380Y-87190476D02*
X165002380Y-86523809D01*
X166002380Y-86952380D01*
X165907142Y-86142857D02*
X165954761Y-86095238D01*
X166002380Y-86142857D01*
X165954761Y-86190476D01*
X165907142Y-86142857D01*
X166002380Y-86142857D01*
X165002380Y-85476190D02*
X165002380Y-85380952D01*
X165050000Y-85285714D01*
X165097619Y-85238095D01*
X165192857Y-85190476D01*
X165383333Y-85142857D01*
X165621428Y-85142857D01*
X165811904Y-85190476D01*
X165907142Y-85238095D01*
X165954761Y-85285714D01*
X166002380Y-85380952D01*
X166002380Y-85476190D01*
X165954761Y-85571428D01*
X165907142Y-85619047D01*
X165811904Y-85666666D01*
X165621428Y-85714285D01*
X165383333Y-85714285D01*
X165192857Y-85666666D01*
X165097619Y-85619047D01*
X165050000Y-85571428D01*
X165002380Y-85476190D01*
X165002380Y-84523809D02*
X165002380Y-84428571D01*
X165050000Y-84333333D01*
X165097619Y-84285714D01*
X165192857Y-84238095D01*
X165383333Y-84190476D01*
X165621428Y-84190476D01*
X165811904Y-84238095D01*
X165907142Y-84285714D01*
X165954761Y-84333333D01*
X166002380Y-84428571D01*
X166002380Y-84523809D01*
X165954761Y-84619047D01*
X165907142Y-84666666D01*
X165811904Y-84714285D01*
X165621428Y-84761904D01*
X165383333Y-84761904D01*
X165192857Y-84714285D01*
X165097619Y-84666666D01*
X165050000Y-84619047D01*
X165002380Y-84523809D01*
X165002380Y-83571428D02*
X165002380Y-83476190D01*
X165050000Y-83380952D01*
X165097619Y-83333333D01*
X165192857Y-83285714D01*
X165383333Y-83238095D01*
X165621428Y-83238095D01*
X165811904Y-83285714D01*
X165907142Y-83333333D01*
X165954761Y-83380952D01*
X166002380Y-83476190D01*
X166002380Y-83571428D01*
X165954761Y-83666666D01*
X165907142Y-83714285D01*
X165811904Y-83761904D01*
X165621428Y-83809523D01*
X165383333Y-83809523D01*
X165192857Y-83761904D01*
X165097619Y-83714285D01*
X165050000Y-83666666D01*
X165002380Y-83571428D01*
X165002380Y-82619047D02*
X165002380Y-82523809D01*
X165050000Y-82428571D01*
X165097619Y-82380952D01*
X165192857Y-82333333D01*
X165383333Y-82285714D01*
X165621428Y-82285714D01*
X165811904Y-82333333D01*
X165907142Y-82380952D01*
X165954761Y-82428571D01*
X166002380Y-82523809D01*
X166002380Y-82619047D01*
X165954761Y-82714285D01*
X165907142Y-82761904D01*
X165811904Y-82809523D01*
X165621428Y-82857142D01*
X165383333Y-82857142D01*
X165192857Y-82809523D01*
X165097619Y-82761904D01*
X165050000Y-82714285D01*
X165002380Y-82619047D01*
X166002380Y-81095238D02*
X165335714Y-81095238D01*
X165430952Y-81095238D02*
X165383333Y-81047619D01*
X165335714Y-80952380D01*
X165335714Y-80809523D01*
X165383333Y-80714285D01*
X165478571Y-80666666D01*
X166002380Y-80666666D01*
X165478571Y-80666666D02*
X165383333Y-80619047D01*
X165335714Y-80523809D01*
X165335714Y-80380952D01*
X165383333Y-80285714D01*
X165478571Y-80238095D01*
X166002380Y-80238095D01*
X166002380Y-79761904D02*
X165335714Y-79761904D01*
X165430952Y-79761904D02*
X165383333Y-79714285D01*
X165335714Y-79619047D01*
X165335714Y-79476190D01*
X165383333Y-79380952D01*
X165478571Y-79333333D01*
X166002380Y-79333333D01*
X165478571Y-79333333D02*
X165383333Y-79285714D01*
X165335714Y-79190476D01*
X165335714Y-79047619D01*
X165383333Y-78952380D01*
X165478571Y-78904761D01*
X166002380Y-78904761D01*
X158100000Y-86500000D02*
X167286420Y-86500000D01*
X158100000Y-79500000D02*
X167286420Y-79500000D01*
X166700000Y-86500000D02*
X166700000Y-79500000D01*
X166700000Y-86500000D02*
X166700000Y-79500000D01*
X166700000Y-86500000D02*
X167286421Y-85373496D01*
X166700000Y-86500000D02*
X166113579Y-85373496D01*
X166700000Y-79500000D02*
X166113579Y-80626504D01*
X166700000Y-79500000D02*
X167286421Y-80626504D01*
X168902380Y-110416666D02*
X168902380Y-109797619D01*
X169283333Y-110130952D01*
X169283333Y-109988095D01*
X169330952Y-109892857D01*
X169378571Y-109845238D01*
X169473809Y-109797619D01*
X169711904Y-109797619D01*
X169807142Y-109845238D01*
X169854761Y-109892857D01*
X169902380Y-109988095D01*
X169902380Y-110273809D01*
X169854761Y-110369047D01*
X169807142Y-110416666D01*
X169330952Y-109226190D02*
X169283333Y-109321428D01*
X169235714Y-109369047D01*
X169140476Y-109416666D01*
X169092857Y-109416666D01*
X168997619Y-109369047D01*
X168950000Y-109321428D01*
X168902380Y-109226190D01*
X168902380Y-109035714D01*
X168950000Y-108940476D01*
X168997619Y-108892857D01*
X169092857Y-108845238D01*
X169140476Y-108845238D01*
X169235714Y-108892857D01*
X169283333Y-108940476D01*
X169330952Y-109035714D01*
X169330952Y-109226190D01*
X169378571Y-109321428D01*
X169426190Y-109369047D01*
X169521428Y-109416666D01*
X169711904Y-109416666D01*
X169807142Y-109369047D01*
X169854761Y-109321428D01*
X169902380Y-109226190D01*
X169902380Y-109035714D01*
X169854761Y-108940476D01*
X169807142Y-108892857D01*
X169711904Y-108845238D01*
X169521428Y-108845238D01*
X169426190Y-108892857D01*
X169378571Y-108940476D01*
X169330952Y-109035714D01*
X169807142Y-108416666D02*
X169854761Y-108369047D01*
X169902380Y-108416666D01*
X169854761Y-108464285D01*
X169807142Y-108416666D01*
X169902380Y-108416666D01*
X168902380Y-108035714D02*
X168902380Y-107416666D01*
X169283333Y-107750000D01*
X169283333Y-107607142D01*
X169330952Y-107511904D01*
X169378571Y-107464285D01*
X169473809Y-107416666D01*
X169711904Y-107416666D01*
X169807142Y-107464285D01*
X169854761Y-107511904D01*
X169902380Y-107607142D01*
X169902380Y-107892857D01*
X169854761Y-107988095D01*
X169807142Y-108035714D01*
X168902380Y-106797619D02*
X168902380Y-106702380D01*
X168950000Y-106607142D01*
X168997619Y-106559523D01*
X169092857Y-106511904D01*
X169283333Y-106464285D01*
X169521428Y-106464285D01*
X169711904Y-106511904D01*
X169807142Y-106559523D01*
X169854761Y-106607142D01*
X169902380Y-106702380D01*
X169902380Y-106797619D01*
X169854761Y-106892857D01*
X169807142Y-106940476D01*
X169711904Y-106988095D01*
X169521428Y-107035714D01*
X169283333Y-107035714D01*
X169092857Y-106988095D01*
X168997619Y-106940476D01*
X168950000Y-106892857D01*
X168902380Y-106797619D01*
X168902380Y-105845238D02*
X168902380Y-105750000D01*
X168950000Y-105654761D01*
X168997619Y-105607142D01*
X169092857Y-105559523D01*
X169283333Y-105511904D01*
X169521428Y-105511904D01*
X169711904Y-105559523D01*
X169807142Y-105607142D01*
X169854761Y-105654761D01*
X169902380Y-105750000D01*
X169902380Y-105845238D01*
X169854761Y-105940476D01*
X169807142Y-105988095D01*
X169711904Y-106035714D01*
X169521428Y-106083333D01*
X169283333Y-106083333D01*
X169092857Y-106035714D01*
X168997619Y-105988095D01*
X168950000Y-105940476D01*
X168902380Y-105845238D01*
X168902380Y-104892857D02*
X168902380Y-104797619D01*
X168950000Y-104702380D01*
X168997619Y-104654761D01*
X169092857Y-104607142D01*
X169283333Y-104559523D01*
X169521428Y-104559523D01*
X169711904Y-104607142D01*
X169807142Y-104654761D01*
X169854761Y-104702380D01*
X169902380Y-104797619D01*
X169902380Y-104892857D01*
X169854761Y-104988095D01*
X169807142Y-105035714D01*
X169711904Y-105083333D01*
X169521428Y-105130952D01*
X169283333Y-105130952D01*
X169092857Y-105083333D01*
X168997619Y-105035714D01*
X168950000Y-104988095D01*
X168902380Y-104892857D01*
X169902380Y-103369047D02*
X169235714Y-103369047D01*
X169330952Y-103369047D02*
X169283333Y-103321428D01*
X169235714Y-103226190D01*
X169235714Y-103083333D01*
X169283333Y-102988095D01*
X169378571Y-102940476D01*
X169902380Y-102940476D01*
X169378571Y-102940476D02*
X169283333Y-102892857D01*
X169235714Y-102797619D01*
X169235714Y-102654761D01*
X169283333Y-102559523D01*
X169378571Y-102511904D01*
X169902380Y-102511904D01*
X169902380Y-102035714D02*
X169235714Y-102035714D01*
X169330952Y-102035714D02*
X169283333Y-101988095D01*
X169235714Y-101892857D01*
X169235714Y-101750000D01*
X169283333Y-101654761D01*
X169378571Y-101607142D01*
X169902380Y-101607142D01*
X169378571Y-101607142D02*
X169283333Y-101559523D01*
X169235714Y-101464285D01*
X169235714Y-101321428D01*
X169283333Y-101226190D01*
X169378571Y-101178571D01*
X169902380Y-101178571D01*
X158487000Y-124900000D02*
X171186420Y-124900000D01*
X158487000Y-86600000D02*
X171186420Y-86600000D01*
X170600000Y-124900000D02*
X170600000Y-86600000D01*
X170600000Y-124900000D02*
X170600000Y-86600000D01*
X170600000Y-124900000D02*
X171186421Y-123773496D01*
X170600000Y-124900000D02*
X170013579Y-123773496D01*
X170600000Y-86600000D02*
X170013579Y-87726504D01*
X170600000Y-86600000D02*
X171186421Y-87726504D01*
X175716690Y-101017472D02*
X175716251Y-100541282D01*
X175240017Y-100494101D01*
X175287680Y-100541676D01*
X175335387Y-100636871D01*
X175335606Y-100874966D01*
X175288074Y-100970248D01*
X175240499Y-101017910D01*
X175145305Y-101065617D01*
X174907210Y-101065836D01*
X174811928Y-101018305D01*
X174764265Y-100970730D01*
X174716558Y-100875535D01*
X174716339Y-100637440D01*
X174763871Y-100542158D01*
X174811446Y-100494496D01*
X174717611Y-102018392D02*
X174717084Y-101446964D01*
X174717348Y-101732678D02*
X175717347Y-101731757D01*
X175574402Y-101636651D01*
X175479077Y-101541501D01*
X175431370Y-101446306D01*
X174813243Y-102446876D02*
X174765668Y-102494539D01*
X174718005Y-102446963D01*
X174765580Y-102399301D01*
X174813243Y-102446876D01*
X174718005Y-102446963D01*
X175718618Y-103112709D02*
X175718706Y-103207947D01*
X175671175Y-103303229D01*
X175623599Y-103350892D01*
X175528405Y-103398599D01*
X175337973Y-103446393D01*
X175099878Y-103446612D01*
X174909358Y-103399169D01*
X174814076Y-103351637D01*
X174766413Y-103304062D01*
X174718706Y-103208868D01*
X174718619Y-103113630D01*
X174766150Y-103018348D01*
X174813725Y-102970685D01*
X174908919Y-102922978D01*
X175099352Y-102875184D01*
X175337447Y-102874965D01*
X175527967Y-102922408D01*
X175623249Y-102969940D01*
X175670912Y-103017515D01*
X175718618Y-103112709D01*
X175719758Y-104350804D02*
X175719320Y-103874614D01*
X175243086Y-103827433D01*
X175290748Y-103875008D01*
X175338455Y-103970202D01*
X175338674Y-104208298D01*
X175291143Y-104303579D01*
X175243568Y-104351242D01*
X175148373Y-104398949D01*
X174910278Y-104399168D01*
X174814996Y-104351637D01*
X174767334Y-104304062D01*
X174719627Y-104208867D01*
X174719408Y-103970772D01*
X174766939Y-103875490D01*
X174814514Y-103827828D01*
X175291757Y-104970246D02*
X175339288Y-104874964D01*
X175386863Y-104827301D01*
X175482057Y-104779594D01*
X175529676Y-104779551D01*
X175624958Y-104827082D01*
X175672621Y-104874657D01*
X175720328Y-104969851D01*
X175720503Y-105160327D01*
X175672972Y-105255609D01*
X175625397Y-105303272D01*
X175530202Y-105350979D01*
X175482583Y-105351023D01*
X175387301Y-105303491D01*
X175339639Y-105255916D01*
X175291932Y-105160722D01*
X175291757Y-104970246D01*
X175244050Y-104875052D01*
X175196387Y-104827476D01*
X175101105Y-104779945D01*
X174910629Y-104780120D01*
X174815435Y-104827827D01*
X174767860Y-104875490D01*
X174720328Y-104970772D01*
X174720504Y-105161248D01*
X174768210Y-105256442D01*
X174815873Y-105304017D01*
X174911155Y-105351549D01*
X175101631Y-105351373D01*
X175196825Y-105303667D01*
X175244401Y-105256004D01*
X175291932Y-105160722D01*
X175721248Y-105969851D02*
X175721336Y-106065089D01*
X175673805Y-106160371D01*
X175626229Y-106208034D01*
X175531035Y-106255740D01*
X175340603Y-106303535D01*
X175102508Y-106303754D01*
X174911988Y-106256310D01*
X174816706Y-106208779D01*
X174769043Y-106161204D01*
X174721336Y-106066009D01*
X174721249Y-105970771D01*
X174768780Y-105875490D01*
X174816355Y-105827827D01*
X174911550Y-105780120D01*
X175101982Y-105732326D01*
X175340077Y-105732106D01*
X175530597Y-105779550D01*
X175625879Y-105827081D01*
X175673542Y-105874657D01*
X175721248Y-105969851D01*
X174722651Y-107494580D02*
X175389318Y-107493967D01*
X175294080Y-107494054D02*
X175341743Y-107541629D01*
X175389449Y-107636824D01*
X175389581Y-107779681D01*
X175342049Y-107874963D01*
X175246855Y-107922669D01*
X174723046Y-107923152D01*
X175246855Y-107922669D02*
X175342137Y-107970201D01*
X175389844Y-108065395D01*
X175389975Y-108208252D01*
X175342444Y-108303534D01*
X175247250Y-108351241D01*
X174723440Y-108351723D01*
X174723879Y-108827913D02*
X175390545Y-108827299D01*
X175295307Y-108827387D02*
X175342970Y-108874962D01*
X175390677Y-108970156D01*
X175390808Y-109113014D01*
X175343277Y-109208295D01*
X175248083Y-109256002D01*
X174724273Y-109256484D01*
X175248083Y-109256002D02*
X175343365Y-109303533D01*
X175391071Y-109398728D01*
X175391203Y-109541585D01*
X175343671Y-109636867D01*
X175248477Y-109684573D01*
X174724668Y-109685056D01*
X158547000Y-130657540D02*
X174632761Y-130642733D01*
X158500000Y-79599540D02*
X174585761Y-79584733D01*
X174046341Y-130643272D02*
X173999341Y-79585272D01*
X174046341Y-130643272D02*
X173999341Y-79585272D01*
X174046341Y-130643272D02*
X174631725Y-129516229D01*
X174046341Y-130643272D02*
X173458884Y-129517309D01*
X173999341Y-79585272D02*
X173413957Y-80712315D01*
X173999341Y-79585272D02*
X174586798Y-80711235D01*
X150838095Y-129300000D02*
X150742857Y-129252380D01*
X150600000Y-129252380D01*
X150457142Y-129300000D01*
X150361904Y-129395238D01*
X150314285Y-129490476D01*
X150266666Y-129680952D01*
X150266666Y-129823809D01*
X150314285Y-130014285D01*
X150361904Y-130109523D01*
X150457142Y-130204761D01*
X150600000Y-130252380D01*
X150695238Y-130252380D01*
X150838095Y-130204761D01*
X150885714Y-130157142D01*
X150885714Y-129823809D01*
X150695238Y-129823809D01*
X151314285Y-130252380D02*
X151314285Y-129252380D01*
X151885714Y-130252380D01*
X151885714Y-129252380D01*
X152361904Y-130252380D02*
X152361904Y-129252380D01*
X152600000Y-129252380D01*
X152742857Y-129300000D01*
X152838095Y-129395238D01*
X152885714Y-129490476D01*
X152933333Y-129680952D01*
X152933333Y-129823809D01*
X152885714Y-130014285D01*
X152838095Y-130109523D01*
X152742857Y-130204761D01*
X152600000Y-130252380D01*
X152361904Y-130252380D01*
X150938095Y-84400000D02*
X150842857Y-84352380D01*
X150700000Y-84352380D01*
X150557142Y-84400000D01*
X150461904Y-84495238D01*
X150414285Y-84590476D01*
X150366666Y-84780952D01*
X150366666Y-84923809D01*
X150414285Y-85114285D01*
X150461904Y-85209523D01*
X150557142Y-85304761D01*
X150700000Y-85352380D01*
X150795238Y-85352380D01*
X150938095Y-85304761D01*
X150985714Y-85257142D01*
X150985714Y-84923809D01*
X150795238Y-84923809D01*
X151414285Y-85352380D02*
X151414285Y-84352380D01*
X151985714Y-85352380D01*
X151985714Y-84352380D01*
X152461904Y-85352380D02*
X152461904Y-84352380D01*
X152700000Y-84352380D01*
X152842857Y-84400000D01*
X152938095Y-84495238D01*
X152985714Y-84590476D01*
X153033333Y-84780952D01*
X153033333Y-84923809D01*
X152985714Y-85114285D01*
X152938095Y-85209523D01*
X152842857Y-85304761D01*
X152700000Y-85352380D01*
X152461904Y-85352380D01*
X152157142Y-80952380D02*
X151680952Y-80952380D01*
X151633333Y-81428571D01*
X151680952Y-81380952D01*
X151776190Y-81333333D01*
X152014285Y-81333333D01*
X152109523Y-81380952D01*
X152157142Y-81428571D01*
X152204761Y-81523809D01*
X152204761Y-81761904D01*
X152157142Y-81857142D01*
X152109523Y-81904761D01*
X152014285Y-81952380D01*
X151776190Y-81952380D01*
X151680952Y-81904761D01*
X151633333Y-81857142D01*
X152538095Y-81285714D02*
X152776190Y-81952380D01*
X153014285Y-81285714D01*
X152357142Y-125252380D02*
X151880952Y-125252380D01*
X151833333Y-125728571D01*
X151880952Y-125680952D01*
X151976190Y-125633333D01*
X152214285Y-125633333D01*
X152309523Y-125680952D01*
X152357142Y-125728571D01*
X152404761Y-125823809D01*
X152404761Y-126061904D01*
X152357142Y-126157142D01*
X152309523Y-126204761D01*
X152214285Y-126252380D01*
X151976190Y-126252380D01*
X151880952Y-126204761D01*
X151833333Y-126157142D01*
X152738095Y-125585714D02*
X152976190Y-126252380D01*
X153214285Y-125585714D01*
%TO.C,R1*%
X147152380Y-120666666D02*
X146676190Y-121000000D01*
X147152380Y-121238095D02*
X146152380Y-121238095D01*
X146152380Y-120857142D01*
X146200000Y-120761904D01*
X146247619Y-120714285D01*
X146342857Y-120666666D01*
X146485714Y-120666666D01*
X146580952Y-120714285D01*
X146628571Y-120761904D01*
X146676190Y-120857142D01*
X146676190Y-121238095D01*
X147152380Y-119714285D02*
X147152380Y-120285714D01*
X147152380Y-120000000D02*
X146152380Y-120000000D01*
X146295238Y-120095238D01*
X146390476Y-120190476D01*
X146438095Y-120285714D01*
%TO.C,D1*%
X135155904Y-109281380D02*
X135155904Y-108281380D01*
X135394000Y-108281380D01*
X135536857Y-108329000D01*
X135632095Y-108424238D01*
X135679714Y-108519476D01*
X135727333Y-108709952D01*
X135727333Y-108852809D01*
X135679714Y-109043285D01*
X135632095Y-109138523D01*
X135536857Y-109233761D01*
X135394000Y-109281380D01*
X135155904Y-109281380D01*
X136679714Y-109281380D02*
X136108285Y-109281380D01*
X136394000Y-109281380D02*
X136394000Y-108281380D01*
X136298761Y-108424238D01*
X136203523Y-108519476D01*
X136108285Y-108567095D01*
X130552095Y-109651380D02*
X130552095Y-108651380D01*
X131123523Y-109651380D02*
X130694952Y-109079952D01*
X131123523Y-108651380D02*
X130552095Y-109222809D01*
%TO.C,D6*%
X148363904Y-91527380D02*
X148363904Y-90527380D01*
X148602000Y-90527380D01*
X148744857Y-90575000D01*
X148840095Y-90670238D01*
X148887714Y-90765476D01*
X148935333Y-90955952D01*
X148935333Y-91098809D01*
X148887714Y-91289285D01*
X148840095Y-91384523D01*
X148744857Y-91479761D01*
X148602000Y-91527380D01*
X148363904Y-91527380D01*
X149792476Y-90527380D02*
X149602000Y-90527380D01*
X149506761Y-90575000D01*
X149459142Y-90622619D01*
X149363904Y-90765476D01*
X149316285Y-90955952D01*
X149316285Y-91336904D01*
X149363904Y-91432142D01*
X149411523Y-91479761D01*
X149506761Y-91527380D01*
X149697238Y-91527380D01*
X149792476Y-91479761D01*
X149840095Y-91432142D01*
X149887714Y-91336904D01*
X149887714Y-91098809D01*
X149840095Y-91003571D01*
X149792476Y-90955952D01*
X149697238Y-90908333D01*
X149506761Y-90908333D01*
X149411523Y-90955952D01*
X149363904Y-91003571D01*
X149316285Y-91098809D01*
%TO.C,D3*%
X135282904Y-113472380D02*
X135282904Y-112472380D01*
X135521000Y-112472380D01*
X135663857Y-112520000D01*
X135759095Y-112615238D01*
X135806714Y-112710476D01*
X135854333Y-112900952D01*
X135854333Y-113043809D01*
X135806714Y-113234285D01*
X135759095Y-113329523D01*
X135663857Y-113424761D01*
X135521000Y-113472380D01*
X135282904Y-113472380D01*
X136187666Y-112472380D02*
X136806714Y-112472380D01*
X136473380Y-112853333D01*
X136616238Y-112853333D01*
X136711476Y-112900952D01*
X136759095Y-112948571D01*
X136806714Y-113043809D01*
X136806714Y-113281904D01*
X136759095Y-113377142D01*
X136711476Y-113424761D01*
X136616238Y-113472380D01*
X136330523Y-113472380D01*
X136235285Y-113424761D01*
X136187666Y-113377142D01*
X130679095Y-113842380D02*
X130679095Y-112842380D01*
X131250523Y-113842380D02*
X130821952Y-113270952D01*
X131250523Y-112842380D02*
X130679095Y-113413809D01*
%TO.C,D4*%
X135155904Y-105090380D02*
X135155904Y-104090380D01*
X135394000Y-104090380D01*
X135536857Y-104138000D01*
X135632095Y-104233238D01*
X135679714Y-104328476D01*
X135727333Y-104518952D01*
X135727333Y-104661809D01*
X135679714Y-104852285D01*
X135632095Y-104947523D01*
X135536857Y-105042761D01*
X135394000Y-105090380D01*
X135155904Y-105090380D01*
X136584476Y-104423714D02*
X136584476Y-105090380D01*
X136346380Y-104042761D02*
X136108285Y-104757047D01*
X136727333Y-104757047D01*
X130552095Y-105460380D02*
X130552095Y-104460380D01*
X131123523Y-105460380D02*
X130694952Y-104888952D01*
X131123523Y-104460380D02*
X130552095Y-105031809D01*
%TO.C,U1*%
X133354095Y-91424380D02*
X133354095Y-92233904D01*
X133401714Y-92329142D01*
X133449333Y-92376761D01*
X133544571Y-92424380D01*
X133735047Y-92424380D01*
X133830285Y-92376761D01*
X133877904Y-92329142D01*
X133925523Y-92233904D01*
X133925523Y-91424380D01*
X134925523Y-92424380D02*
X134354095Y-92424380D01*
X134639809Y-92424380D02*
X134639809Y-91424380D01*
X134544571Y-91567238D01*
X134449333Y-91662476D01*
X134354095Y-91710095D01*
%TO.C,C2*%
X144933333Y-80857142D02*
X144885714Y-80904761D01*
X144742857Y-80952380D01*
X144647619Y-80952380D01*
X144504761Y-80904761D01*
X144409523Y-80809523D01*
X144361904Y-80714285D01*
X144314285Y-80523809D01*
X144314285Y-80380952D01*
X144361904Y-80190476D01*
X144409523Y-80095238D01*
X144504761Y-80000000D01*
X144647619Y-79952380D01*
X144742857Y-79952380D01*
X144885714Y-80000000D01*
X144933333Y-80047619D01*
X145314285Y-80047619D02*
X145361904Y-80000000D01*
X145457142Y-79952380D01*
X145695238Y-79952380D01*
X145790476Y-80000000D01*
X145838095Y-80047619D01*
X145885714Y-80142857D01*
X145885714Y-80238095D01*
X145838095Y-80380952D01*
X145266666Y-80952380D01*
X145885714Y-80952380D01*
%TO.C,D2*%
X135282904Y-100899380D02*
X135282904Y-99899380D01*
X135521000Y-99899380D01*
X135663857Y-99947000D01*
X135759095Y-100042238D01*
X135806714Y-100137476D01*
X135854333Y-100327952D01*
X135854333Y-100470809D01*
X135806714Y-100661285D01*
X135759095Y-100756523D01*
X135663857Y-100851761D01*
X135521000Y-100899380D01*
X135282904Y-100899380D01*
X136235285Y-99994619D02*
X136282904Y-99947000D01*
X136378142Y-99899380D01*
X136616238Y-99899380D01*
X136711476Y-99947000D01*
X136759095Y-99994619D01*
X136806714Y-100089857D01*
X136806714Y-100185095D01*
X136759095Y-100327952D01*
X136187666Y-100899380D01*
X136806714Y-100899380D01*
X130679095Y-101269380D02*
X130679095Y-100269380D01*
X131250523Y-101269380D02*
X130821952Y-100697952D01*
X131250523Y-100269380D02*
X130679095Y-100840809D01*
%TO.C,J1*%
X133691666Y-130725380D02*
X133691666Y-131439666D01*
X133644047Y-131582523D01*
X133548809Y-131677761D01*
X133405952Y-131725380D01*
X133310714Y-131725380D01*
X134691666Y-131725380D02*
X134120238Y-131725380D01*
X134405952Y-131725380D02*
X134405952Y-130725380D01*
X134310714Y-130868238D01*
X134215476Y-130963476D01*
X134120238Y-131011095D01*
%TO.C,D5*%
X148363904Y-109434380D02*
X148363904Y-108434380D01*
X148602000Y-108434380D01*
X148744857Y-108482000D01*
X148840095Y-108577238D01*
X148887714Y-108672476D01*
X148935333Y-108862952D01*
X148935333Y-109005809D01*
X148887714Y-109196285D01*
X148840095Y-109291523D01*
X148744857Y-109386761D01*
X148602000Y-109434380D01*
X148363904Y-109434380D01*
X149840095Y-108434380D02*
X149363904Y-108434380D01*
X149316285Y-108910571D01*
X149363904Y-108862952D01*
X149459142Y-108815333D01*
X149697238Y-108815333D01*
X149792476Y-108862952D01*
X149840095Y-108910571D01*
X149887714Y-109005809D01*
X149887714Y-109243904D01*
X149840095Y-109339142D01*
X149792476Y-109386761D01*
X149697238Y-109434380D01*
X149459142Y-109434380D01*
X149363904Y-109386761D01*
X149316285Y-109339142D01*
%TO.C,J3*%
X155113666Y-123910380D02*
X155113666Y-124624666D01*
X155066047Y-124767523D01*
X154970809Y-124862761D01*
X154827952Y-124910380D01*
X154732714Y-124910380D01*
X155494619Y-123910380D02*
X156113666Y-123910380D01*
X155780333Y-124291333D01*
X155923190Y-124291333D01*
X156018428Y-124338952D01*
X156066047Y-124386571D01*
X156113666Y-124481809D01*
X156113666Y-124719904D01*
X156066047Y-124815142D01*
X156018428Y-124862761D01*
X155923190Y-124910380D01*
X155637476Y-124910380D01*
X155542238Y-124862761D01*
X155494619Y-124815142D01*
%TO.C,C1*%
X137533333Y-81057142D02*
X137485714Y-81104761D01*
X137342857Y-81152380D01*
X137247619Y-81152380D01*
X137104761Y-81104761D01*
X137009523Y-81009523D01*
X136961904Y-80914285D01*
X136914285Y-80723809D01*
X136914285Y-80580952D01*
X136961904Y-80390476D01*
X137009523Y-80295238D01*
X137104761Y-80200000D01*
X137247619Y-80152380D01*
X137342857Y-80152380D01*
X137485714Y-80200000D01*
X137533333Y-80247619D01*
X138485714Y-81152380D02*
X137914285Y-81152380D01*
X138200000Y-81152380D02*
X138200000Y-80152380D01*
X138104761Y-80295238D01*
X138009523Y-80390476D01*
X137914285Y-80438095D01*
%TO.C,J2*%
X152266666Y-82452380D02*
X152266666Y-83166666D01*
X152219047Y-83309523D01*
X152123809Y-83404761D01*
X151980952Y-83452380D01*
X151885714Y-83452380D01*
X152695238Y-82547619D02*
X152742857Y-82500000D01*
X152838095Y-82452380D01*
X153076190Y-82452380D01*
X153171428Y-82500000D01*
X153219047Y-82547619D01*
X153266666Y-82642857D01*
X153266666Y-82738095D01*
X153219047Y-82880952D01*
X152647619Y-83452380D01*
X153266666Y-83452380D01*
%TO.C,R2*%
X141152380Y-90566666D02*
X140676190Y-90900000D01*
X141152380Y-91138095D02*
X140152380Y-91138095D01*
X140152380Y-90757142D01*
X140200000Y-90661904D01*
X140247619Y-90614285D01*
X140342857Y-90566666D01*
X140485714Y-90566666D01*
X140580952Y-90614285D01*
X140628571Y-90661904D01*
X140676190Y-90757142D01*
X140676190Y-91138095D01*
X140247619Y-90185714D02*
X140200000Y-90138095D01*
X140152380Y-90042857D01*
X140152380Y-89804761D01*
X140200000Y-89709523D01*
X140247619Y-89661904D01*
X140342857Y-89614285D01*
X140438095Y-89614285D01*
X140580952Y-89661904D01*
X141152380Y-90233333D01*
X141152380Y-89614285D01*
%TO.C,SW1*%
X153053761Y-104864333D02*
X153101380Y-104721476D01*
X153101380Y-104483380D01*
X153053761Y-104388142D01*
X153006142Y-104340523D01*
X152910904Y-104292904D01*
X152815666Y-104292904D01*
X152720428Y-104340523D01*
X152672809Y-104388142D01*
X152625190Y-104483380D01*
X152577571Y-104673857D01*
X152529952Y-104769095D01*
X152482333Y-104816714D01*
X152387095Y-104864333D01*
X152291857Y-104864333D01*
X152196619Y-104816714D01*
X152149000Y-104769095D01*
X152101380Y-104673857D01*
X152101380Y-104435761D01*
X152149000Y-104292904D01*
X152101380Y-103959571D02*
X153101380Y-103721476D01*
X152387095Y-103531000D01*
X153101380Y-103340523D01*
X152101380Y-103102428D01*
X153101380Y-102197666D02*
X153101380Y-102769095D01*
X153101380Y-102483380D02*
X152101380Y-102483380D01*
X152244238Y-102578619D01*
X152339476Y-102673857D01*
X152387095Y-102769095D01*
D11*
%TO.C,R1*%
X147808000Y-127650000D02*
X147478000Y-127650000D01*
X150218000Y-121110000D02*
X149888000Y-121110000D01*
X149888000Y-127650000D02*
X150218000Y-127650000D01*
X150218000Y-127650000D02*
X150218000Y-121110000D01*
X147478000Y-121110000D02*
X147808000Y-121110000D01*
X147478000Y-127650000D02*
X147478000Y-121110000D01*
%TO.C,D1*%
X138614000Y-109829000D02*
X133174000Y-109829000D01*
X139634000Y-111299000D02*
X138614000Y-111299000D01*
X133174000Y-112769000D02*
X138614000Y-112769000D01*
X133174000Y-109829000D02*
X133174000Y-112769000D01*
X138614000Y-112769000D02*
X138614000Y-109829000D01*
X133954000Y-109829000D02*
X133954000Y-112769000D01*
X134194000Y-109829000D02*
X134194000Y-112769000D01*
X134074000Y-109829000D02*
X134074000Y-112769000D01*
X132154000Y-111299000D02*
X133174000Y-111299000D01*
%TO.C,D6*%
X147042000Y-93136000D02*
X147042000Y-93455000D01*
X147042000Y-95615000D02*
X147042000Y-95934000D01*
X147418670Y-95615000D02*
G75*
G03*
X150784713Y-95615961I1683330J1080000D01*
G01*
X147042000Y-95933749D02*
G75*
G03*
X151345242Y-95615724I2060000J1398749D01*
G01*
X151345242Y-93454276D02*
G75*
G03*
X147042000Y-93136251I-2243242J-1080724D01*
G01*
X150784713Y-93454039D02*
G75*
G03*
X147418670Y-93455000I-1682713J-1080961D01*
G01*
%TO.C,D3*%
X134081000Y-114020000D02*
X134081000Y-116960000D01*
X138741000Y-114020000D02*
X133301000Y-114020000D01*
X138741000Y-116960000D02*
X138741000Y-114020000D01*
X132281000Y-115490000D02*
X133301000Y-115490000D01*
X139761000Y-115490000D02*
X138741000Y-115490000D01*
X134201000Y-114020000D02*
X134201000Y-116960000D01*
X134321000Y-114020000D02*
X134321000Y-116960000D01*
X133301000Y-114020000D02*
X133301000Y-116960000D01*
X133301000Y-116960000D02*
X138741000Y-116960000D01*
%TO.C,D4*%
X133954000Y-105638000D02*
X133954000Y-108578000D01*
X133174000Y-105638000D02*
X133174000Y-108578000D01*
X134074000Y-105638000D02*
X134074000Y-108578000D01*
X138614000Y-105638000D02*
X133174000Y-105638000D01*
X139634000Y-107108000D02*
X138614000Y-107108000D01*
X132154000Y-107108000D02*
X133174000Y-107108000D01*
X133174000Y-108578000D02*
X138614000Y-108578000D01*
X138614000Y-108578000D02*
X138614000Y-105638000D01*
X134194000Y-105638000D02*
X134194000Y-108578000D01*
%TO.C,U1*%
X128996000Y-92972000D02*
X128996000Y-97613000D01*
X132266000Y-92972000D02*
X132266000Y-94482000D01*
X135967000Y-92972000D02*
X135967000Y-94482000D01*
X128996000Y-92972000D02*
X139236000Y-92972000D01*
X139236000Y-92972000D02*
X139236000Y-97613000D01*
X128996000Y-97613000D02*
X139236000Y-97613000D01*
X128996000Y-94482000D02*
X139236000Y-94482000D01*
%TO.C,C2*%
X142983000Y-80908000D02*
X142983000Y-82446000D01*
X143343000Y-80950000D02*
X143343000Y-82446000D01*
X142943000Y-84526000D02*
X142943000Y-86065000D01*
X143183000Y-84526000D02*
X143183000Y-86047000D01*
X143503000Y-80985000D02*
X143503000Y-82446000D01*
X143383000Y-84526000D02*
X143383000Y-86014000D01*
X143744000Y-81058000D02*
X143744000Y-82446000D01*
X144064000Y-84526000D02*
X144064000Y-85776000D01*
X142903000Y-84526000D02*
X142903000Y-86066000D01*
X143704000Y-84526000D02*
X143704000Y-85928000D01*
X142943000Y-80907000D02*
X142943000Y-82446000D01*
X144664000Y-81622000D02*
X144664000Y-82446000D01*
X143023000Y-80910000D02*
X143023000Y-82446000D01*
X143143000Y-84526000D02*
X143143000Y-86051000D01*
X144384000Y-81391000D02*
X144384000Y-82446000D01*
X145464000Y-83202000D02*
X145464000Y-83770000D01*
X144264000Y-84526000D02*
X144264000Y-85661000D01*
X145264000Y-82475000D02*
X145264000Y-84497000D01*
X142863000Y-80906000D02*
X142863000Y-82446000D01*
X143984000Y-84526000D02*
X143984000Y-85815000D01*
X140308225Y-81761000D02*
X140308225Y-82261000D01*
X143664000Y-84526000D02*
X143664000Y-85941000D01*
X144704000Y-84526000D02*
X144704000Y-85312000D01*
X143664000Y-81031000D02*
X143664000Y-82446000D01*
X143584000Y-84526000D02*
X143584000Y-85966000D01*
X143303000Y-84526000D02*
X143303000Y-86029000D01*
X144704000Y-81660000D02*
X144704000Y-82446000D01*
X144104000Y-81218000D02*
X144104000Y-82446000D01*
X144064000Y-81196000D02*
X144064000Y-82446000D01*
X144304000Y-81337000D02*
X144304000Y-82446000D01*
X143063000Y-80913000D02*
X143063000Y-82446000D01*
X143103000Y-84526000D02*
X143103000Y-86055000D01*
X143063000Y-84526000D02*
X143063000Y-86059000D01*
X145104000Y-82167000D02*
X145104000Y-84805000D01*
X144864000Y-84526000D02*
X144864000Y-85139000D01*
X143023000Y-84526000D02*
X143023000Y-86062000D01*
X145024000Y-82043000D02*
X145024000Y-84929000D01*
X145384000Y-82809000D02*
X145384000Y-84163000D01*
X144104000Y-84526000D02*
X144104000Y-85754000D01*
X144424000Y-84526000D02*
X144424000Y-85551000D01*
X144344000Y-81364000D02*
X144344000Y-82446000D01*
X144784000Y-81743000D02*
X144784000Y-82446000D01*
X144824000Y-84526000D02*
X144824000Y-85185000D01*
X145064000Y-82103000D02*
X145064000Y-84869000D01*
X144264000Y-81311000D02*
X144264000Y-82446000D01*
X144384000Y-84526000D02*
X144384000Y-85581000D01*
X143704000Y-81044000D02*
X143704000Y-82446000D01*
X144144000Y-84526000D02*
X144144000Y-85733000D01*
X144584000Y-84526000D02*
X144584000Y-85423000D01*
X143584000Y-81006000D02*
X143584000Y-82446000D01*
X143543000Y-80995000D02*
X143543000Y-82446000D01*
X143183000Y-80925000D02*
X143183000Y-82446000D01*
X143784000Y-84526000D02*
X143784000Y-85900000D01*
X144784000Y-84526000D02*
X144784000Y-85229000D01*
X143784000Y-81072000D02*
X143784000Y-82446000D01*
X145184000Y-82308000D02*
X145184000Y-84664000D01*
X143824000Y-81088000D02*
X143824000Y-82446000D01*
X144184000Y-84526000D02*
X144184000Y-85710000D01*
X144464000Y-81451000D02*
X144464000Y-82446000D01*
X144624000Y-84526000D02*
X144624000Y-85387000D01*
X143463000Y-80975000D02*
X143463000Y-82446000D01*
X144584000Y-81549000D02*
X144584000Y-82446000D01*
X143303000Y-80943000D02*
X143303000Y-82446000D01*
X144464000Y-84526000D02*
X144464000Y-85521000D01*
X144664000Y-84526000D02*
X144664000Y-85350000D01*
X143423000Y-80966000D02*
X143423000Y-82446000D01*
X145224000Y-82388000D02*
X145224000Y-84584000D01*
X142863000Y-84526000D02*
X142863000Y-86066000D01*
X143263000Y-80936000D02*
X143263000Y-82446000D01*
X143624000Y-84526000D02*
X143624000Y-85954000D01*
X144224000Y-81286000D02*
X144224000Y-82446000D01*
X144824000Y-81787000D02*
X144824000Y-82446000D01*
X143223000Y-84526000D02*
X143223000Y-86042000D01*
X144504000Y-81482000D02*
X144504000Y-82446000D01*
X142983000Y-84526000D02*
X142983000Y-86064000D01*
X144544000Y-84526000D02*
X144544000Y-85457000D01*
X145304000Y-82571000D02*
X145304000Y-84401000D01*
X144744000Y-81701000D02*
X144744000Y-82446000D01*
X143944000Y-84526000D02*
X143944000Y-85834000D01*
X144024000Y-81176000D02*
X144024000Y-82446000D01*
X143263000Y-84526000D02*
X143263000Y-86036000D01*
X143904000Y-84526000D02*
X143904000Y-85851000D01*
X144864000Y-81833000D02*
X144864000Y-82446000D01*
X143543000Y-84526000D02*
X143543000Y-85977000D01*
X143343000Y-84526000D02*
X143343000Y-86022000D01*
X144424000Y-81421000D02*
X144424000Y-82446000D01*
X144224000Y-84526000D02*
X144224000Y-85686000D01*
X143624000Y-81018000D02*
X143624000Y-82446000D01*
X144184000Y-81262000D02*
X144184000Y-82446000D01*
X144984000Y-81986000D02*
X144984000Y-84986000D01*
X144624000Y-81585000D02*
X144624000Y-82446000D01*
X144944000Y-81932000D02*
X144944000Y-85040000D01*
X144144000Y-81239000D02*
X144144000Y-82446000D01*
X144744000Y-84526000D02*
X144744000Y-85271000D01*
X143824000Y-84526000D02*
X143824000Y-85884000D01*
X145344000Y-82681000D02*
X145344000Y-84291000D01*
X140058225Y-82011000D02*
X140558225Y-82011000D01*
X144304000Y-84526000D02*
X144304000Y-85635000D01*
X143744000Y-84526000D02*
X143744000Y-85914000D01*
X143944000Y-81138000D02*
X143944000Y-82446000D01*
X143864000Y-84526000D02*
X143864000Y-85868000D01*
X143984000Y-81157000D02*
X143984000Y-82446000D01*
X143463000Y-84526000D02*
X143463000Y-85997000D01*
X143423000Y-84526000D02*
X143423000Y-86006000D01*
X143864000Y-81104000D02*
X143864000Y-82446000D01*
X144904000Y-81881000D02*
X144904000Y-85091000D01*
X143383000Y-80958000D02*
X143383000Y-82446000D01*
X144024000Y-84526000D02*
X144024000Y-85796000D01*
X144504000Y-84526000D02*
X144504000Y-85490000D01*
X142903000Y-80906000D02*
X142903000Y-82446000D01*
X143904000Y-81121000D02*
X143904000Y-82446000D01*
X144344000Y-84526000D02*
X144344000Y-85608000D01*
X143143000Y-80921000D02*
X143143000Y-82446000D01*
X143503000Y-84526000D02*
X143503000Y-85987000D01*
X143103000Y-80917000D02*
X143103000Y-82446000D01*
X144544000Y-81515000D02*
X144544000Y-82446000D01*
X145144000Y-82235000D02*
X145144000Y-84737000D01*
X143223000Y-80930000D02*
X143223000Y-82446000D01*
X145424000Y-82968000D02*
X145424000Y-84004000D01*
X145483000Y-83486000D02*
G75*
G03*
X145483000Y-83486000I-2620000J0D01*
G01*
%TO.C,D2*%
X138741000Y-101447000D02*
X133301000Y-101447000D01*
X134201000Y-101447000D02*
X134201000Y-104387000D01*
X133301000Y-101447000D02*
X133301000Y-104387000D01*
X134321000Y-101447000D02*
X134321000Y-104387000D01*
X134081000Y-101447000D02*
X134081000Y-104387000D01*
X132281000Y-102917000D02*
X133301000Y-102917000D01*
X133301000Y-104387000D02*
X138741000Y-104387000D01*
X138741000Y-104387000D02*
X138741000Y-101447000D01*
X139761000Y-102917000D02*
X138741000Y-102917000D01*
%TO.C,J1*%
X143515000Y-120683000D02*
X143515000Y-122423000D01*
X128675000Y-120923000D02*
X143275000Y-120923000D01*
X143275000Y-127323000D02*
X143275000Y-130123000D01*
X143275000Y-120923000D02*
X143275000Y-123723000D01*
X141775000Y-120683000D02*
X143515000Y-120683000D01*
X128675000Y-130123000D02*
X128675000Y-120923000D01*
X137675000Y-130123000D02*
X128675000Y-130123000D01*
X143275000Y-130123000D02*
X141275000Y-130123000D01*
%TO.C,D5*%
X147042000Y-113522000D02*
X147042000Y-113841000D01*
X147042000Y-111043000D02*
X147042000Y-111362000D01*
X150784713Y-111361039D02*
G75*
G03*
X147418670Y-111362000I-1682713J-1080961D01*
G01*
X147418670Y-113522000D02*
G75*
G03*
X150784713Y-113522961I1683330J1080000D01*
G01*
X147042000Y-113840749D02*
G75*
G03*
X151345242Y-113522724I2060000J1398749D01*
G01*
X151345242Y-111361276D02*
G75*
G03*
X147042000Y-111043251I-2243242J-1080724D01*
G01*
%TO.C,J3*%
X155447000Y-125458000D02*
X158047000Y-125458000D01*
X155447000Y-128058000D02*
X155447000Y-125458000D01*
X152847000Y-125458000D02*
X154177000Y-125458000D01*
X152847000Y-128058000D02*
X155447000Y-128058000D01*
X152847000Y-130658000D02*
X158047000Y-130658000D01*
X152847000Y-128058000D02*
X152847000Y-130658000D01*
X158047000Y-125458000D02*
X158047000Y-130658000D01*
X152847000Y-126788000D02*
X152847000Y-125458000D01*
%TO.C,C1*%
X136117000Y-87140000D02*
X136117000Y-90556000D01*
X136397000Y-87140000D02*
X136397000Y-90424000D01*
X134116000Y-80819000D02*
X134116000Y-90979000D01*
X135077000Y-80917000D02*
X135077000Y-90881000D01*
X136277000Y-81315000D02*
X136277000Y-84658000D01*
X137037000Y-81761000D02*
X137037000Y-84658000D01*
X136917000Y-87140000D02*
X136917000Y-90120000D01*
X134396000Y-80829000D02*
X134396000Y-90969000D01*
X138597000Y-83534000D02*
X138597000Y-88264000D01*
X138277000Y-83010000D02*
X138277000Y-88788000D01*
X137757000Y-87140000D02*
X137757000Y-89419000D01*
X137797000Y-82421000D02*
X137797000Y-84658000D01*
X135877000Y-87140000D02*
X135877000Y-90653000D01*
X136357000Y-81354000D02*
X136357000Y-84658000D01*
X138237000Y-82954000D02*
X138237000Y-88844000D01*
X138197000Y-82899000D02*
X138197000Y-88899000D01*
X135997000Y-87140000D02*
X135997000Y-90606000D01*
X139157000Y-85300000D02*
X139157000Y-86498000D01*
X136757000Y-81576000D02*
X136757000Y-84658000D01*
X134356000Y-80826000D02*
X134356000Y-90972000D01*
X137197000Y-81879000D02*
X137197000Y-84658000D01*
X137517000Y-87140000D02*
X137517000Y-89652000D01*
X135837000Y-87140000D02*
X135837000Y-90667000D01*
X134196000Y-80820000D02*
X134196000Y-90978000D01*
X136317000Y-81335000D02*
X136317000Y-84658000D01*
X135397000Y-87140000D02*
X135397000Y-90806000D01*
X136437000Y-87140000D02*
X136437000Y-90403000D01*
X137237000Y-87140000D02*
X137237000Y-89888000D01*
X134516000Y-80837000D02*
X134516000Y-90961000D01*
X134997000Y-80902000D02*
X134997000Y-90896000D01*
X135477000Y-87140000D02*
X135477000Y-90784000D01*
X138917000Y-84269000D02*
X138917000Y-87529000D01*
X138317000Y-83069000D02*
X138317000Y-88729000D01*
X136357000Y-87140000D02*
X136357000Y-90444000D01*
X134316000Y-80824000D02*
X134316000Y-90974000D01*
X138557000Y-83460000D02*
X138557000Y-88338000D01*
X136597000Y-81482000D02*
X136597000Y-84658000D01*
X139037000Y-84669000D02*
X139037000Y-87129000D01*
X137277000Y-81942000D02*
X137277000Y-84658000D01*
X137117000Y-81819000D02*
X137117000Y-84658000D01*
X137717000Y-87140000D02*
X137717000Y-89460000D01*
X136677000Y-81528000D02*
X136677000Y-84658000D01*
X137597000Y-87140000D02*
X137597000Y-89578000D01*
X134156000Y-80819000D02*
X134156000Y-90979000D01*
X136717000Y-81552000D02*
X136717000Y-84658000D01*
X136397000Y-81374000D02*
X136397000Y-84658000D01*
X136077000Y-87140000D02*
X136077000Y-90573000D01*
X136477000Y-87140000D02*
X136477000Y-90382000D01*
X135037000Y-80909000D02*
X135037000Y-90889000D01*
X138797000Y-83955000D02*
X138797000Y-87843000D01*
X134957000Y-80895000D02*
X134957000Y-90903000D01*
X135957000Y-87140000D02*
X135957000Y-90622000D01*
X138757000Y-83862000D02*
X138757000Y-87936000D01*
X136037000Y-87140000D02*
X136037000Y-90589000D01*
X137357000Y-82007000D02*
X137357000Y-84658000D01*
X138877000Y-84157000D02*
X138877000Y-87641000D01*
X135317000Y-80971000D02*
X135317000Y-90827000D01*
X135997000Y-81192000D02*
X135997000Y-84658000D01*
X137797000Y-87140000D02*
X137797000Y-89377000D01*
X135717000Y-81088000D02*
X135717000Y-84658000D01*
X135197000Y-80943000D02*
X135197000Y-90855000D01*
X135757000Y-87140000D02*
X135757000Y-90696000D01*
X136197000Y-87140000D02*
X136197000Y-90520000D01*
X137517000Y-82146000D02*
X137517000Y-84658000D01*
X138717000Y-83774000D02*
X138717000Y-88024000D01*
X135557000Y-81037000D02*
X135557000Y-84658000D01*
X137477000Y-82110000D02*
X137477000Y-84658000D01*
X137397000Y-87140000D02*
X137397000Y-89757000D01*
X135717000Y-87140000D02*
X135717000Y-90710000D01*
X137277000Y-87140000D02*
X137277000Y-89856000D01*
X138397000Y-83190000D02*
X138397000Y-88608000D01*
X135957000Y-81176000D02*
X135957000Y-84658000D01*
X135597000Y-87140000D02*
X135597000Y-90749000D01*
X135357000Y-80981000D02*
X135357000Y-84658000D01*
X137837000Y-82463000D02*
X137837000Y-89335000D01*
X134917000Y-80888000D02*
X134917000Y-90910000D01*
X135237000Y-80952000D02*
X135237000Y-90846000D01*
X137557000Y-87140000D02*
X137557000Y-89615000D01*
X134716000Y-80859000D02*
X134716000Y-90939000D01*
X136717000Y-87140000D02*
X136717000Y-90246000D01*
X136637000Y-81504000D02*
X136637000Y-84658000D01*
X137717000Y-82338000D02*
X137717000Y-84658000D01*
X137757000Y-82379000D02*
X137757000Y-84658000D01*
X136557000Y-87140000D02*
X136557000Y-90339000D01*
X136117000Y-81242000D02*
X136117000Y-84658000D01*
X135557000Y-87140000D02*
X135557000Y-90761000D01*
X136677000Y-87140000D02*
X136677000Y-90270000D01*
X137637000Y-87140000D02*
X137637000Y-89539000D01*
X135517000Y-87140000D02*
X135517000Y-90773000D01*
X135597000Y-81049000D02*
X135597000Y-84658000D01*
X136957000Y-87140000D02*
X136957000Y-90093000D01*
X135677000Y-81075000D02*
X135677000Y-84658000D01*
X136157000Y-81260000D02*
X136157000Y-84658000D01*
X137157000Y-81849000D02*
X137157000Y-84658000D01*
X136997000Y-87140000D02*
X136997000Y-90065000D01*
X135517000Y-81025000D02*
X135517000Y-84658000D01*
X137157000Y-87140000D02*
X137157000Y-89949000D01*
X137997000Y-82645000D02*
X137997000Y-89153000D01*
X138357000Y-83129000D02*
X138357000Y-88669000D01*
X136877000Y-87140000D02*
X136877000Y-90146000D01*
X134596000Y-80845000D02*
X134596000Y-90953000D01*
X137677000Y-82298000D02*
X137677000Y-84658000D01*
X137557000Y-82183000D02*
X137557000Y-84658000D01*
X136797000Y-81601000D02*
X136797000Y-84658000D01*
X136037000Y-81209000D02*
X136037000Y-84658000D01*
X136237000Y-81296000D02*
X136237000Y-84658000D01*
X139077000Y-84837000D02*
X139077000Y-86961000D01*
X138517000Y-83389000D02*
X138517000Y-88409000D01*
X135637000Y-87140000D02*
X135637000Y-90736000D01*
X137077000Y-81789000D02*
X137077000Y-84658000D01*
X137877000Y-82507000D02*
X137877000Y-89291000D01*
X135437000Y-81002000D02*
X135437000Y-84658000D01*
X135917000Y-87140000D02*
X135917000Y-90637000D01*
X137637000Y-82259000D02*
X137637000Y-84658000D01*
X138477000Y-83320000D02*
X138477000Y-88478000D01*
X136197000Y-81278000D02*
X136197000Y-84658000D01*
X129096354Y-82524000D02*
X129096354Y-83524000D01*
X136957000Y-81705000D02*
X136957000Y-84658000D01*
X134476000Y-80834000D02*
X134476000Y-90964000D01*
X136077000Y-81225000D02*
X136077000Y-84658000D01*
X137117000Y-87140000D02*
X137117000Y-89979000D01*
X135797000Y-87140000D02*
X135797000Y-90682000D01*
X137477000Y-87140000D02*
X137477000Y-89688000D01*
X137917000Y-82552000D02*
X137917000Y-89246000D01*
X135837000Y-81131000D02*
X135837000Y-84658000D01*
X136517000Y-81437000D02*
X136517000Y-84658000D01*
X135917000Y-81161000D02*
X135917000Y-84658000D01*
X135277000Y-80961000D02*
X135277000Y-90837000D01*
X138957000Y-84389000D02*
X138957000Y-87409000D01*
X135477000Y-81014000D02*
X135477000Y-84658000D01*
X135637000Y-81062000D02*
X135637000Y-84658000D01*
X138437000Y-83254000D02*
X138437000Y-88544000D01*
X135437000Y-87140000D02*
X135437000Y-90796000D01*
X136877000Y-81652000D02*
X136877000Y-84658000D01*
X134556000Y-80841000D02*
X134556000Y-90957000D01*
X138997000Y-84521000D02*
X138997000Y-87277000D01*
X136477000Y-81416000D02*
X136477000Y-84658000D01*
X135357000Y-87140000D02*
X135357000Y-90817000D01*
X137437000Y-82075000D02*
X137437000Y-84658000D01*
X136837000Y-87140000D02*
X136837000Y-90172000D01*
X128596354Y-83024000D02*
X129596354Y-83024000D01*
X135117000Y-80925000D02*
X135117000Y-90873000D01*
X137437000Y-87140000D02*
X137437000Y-89723000D01*
X134837000Y-80875000D02*
X134837000Y-90923000D01*
X136277000Y-87140000D02*
X136277000Y-90483000D01*
X137957000Y-82598000D02*
X137957000Y-89200000D01*
X136757000Y-87140000D02*
X136757000Y-90222000D01*
X134636000Y-80849000D02*
X134636000Y-90949000D01*
X134276000Y-80822000D02*
X134276000Y-90976000D01*
X138077000Y-82743000D02*
X138077000Y-89055000D01*
X136557000Y-81459000D02*
X136557000Y-84658000D01*
X136797000Y-87140000D02*
X136797000Y-90197000D01*
X136517000Y-87140000D02*
X136517000Y-90361000D01*
X135157000Y-80934000D02*
X135157000Y-90864000D01*
X135757000Y-81102000D02*
X135757000Y-84658000D01*
X136237000Y-87140000D02*
X136237000Y-90502000D01*
X136157000Y-87140000D02*
X136157000Y-90538000D01*
X135397000Y-80992000D02*
X135397000Y-84658000D01*
X135797000Y-81116000D02*
X135797000Y-84658000D01*
X136837000Y-81626000D02*
X136837000Y-84658000D01*
X136437000Y-81395000D02*
X136437000Y-84658000D01*
X135677000Y-87140000D02*
X135677000Y-90723000D01*
X138837000Y-84053000D02*
X138837000Y-87745000D01*
X134676000Y-80854000D02*
X134676000Y-90944000D01*
X137597000Y-82220000D02*
X137597000Y-84658000D01*
X137077000Y-87140000D02*
X137077000Y-90009000D01*
X134797000Y-80869000D02*
X134797000Y-90929000D01*
X138157000Y-82845000D02*
X138157000Y-88953000D01*
X134436000Y-80831000D02*
X134436000Y-90967000D01*
X136597000Y-87140000D02*
X136597000Y-90316000D01*
X137397000Y-82041000D02*
X137397000Y-84658000D01*
X137037000Y-87140000D02*
X137037000Y-90037000D01*
X136917000Y-81678000D02*
X136917000Y-84658000D01*
X137317000Y-87140000D02*
X137317000Y-89824000D01*
X137317000Y-81974000D02*
X137317000Y-84658000D01*
X138637000Y-83610000D02*
X138637000Y-88188000D01*
X134877000Y-80881000D02*
X134877000Y-90917000D01*
X134236000Y-80821000D02*
X134236000Y-90977000D01*
X137677000Y-87140000D02*
X137677000Y-89500000D01*
X136637000Y-87140000D02*
X136637000Y-90294000D01*
X137237000Y-81910000D02*
X137237000Y-84658000D01*
X136997000Y-81733000D02*
X136997000Y-84658000D01*
X138677000Y-83690000D02*
X138677000Y-88108000D01*
X139117000Y-85037000D02*
X139117000Y-86761000D01*
X138037000Y-82693000D02*
X138037000Y-89105000D01*
X134756000Y-80864000D02*
X134756000Y-90934000D01*
X134076000Y-80819000D02*
X134076000Y-90979000D01*
X135877000Y-81145000D02*
X135877000Y-84658000D01*
X137197000Y-87140000D02*
X137197000Y-89919000D01*
X136317000Y-87140000D02*
X136317000Y-90463000D01*
X138117000Y-82793000D02*
X138117000Y-89005000D01*
X137357000Y-87140000D02*
X137357000Y-89791000D01*
X139196000Y-85899000D02*
G75*
G03*
X139196000Y-85899000I-5120000J0D01*
G01*
%TO.C,J2*%
X155447000Y-83405000D02*
X155447000Y-80805000D01*
X152847000Y-83405000D02*
X155447000Y-83405000D01*
X155447000Y-80805000D02*
X158047000Y-80805000D01*
X152847000Y-86005000D02*
X158047000Y-86005000D01*
X158047000Y-80805000D02*
X158047000Y-86005000D01*
X152847000Y-80805000D02*
X154177000Y-80805000D01*
X152847000Y-82135000D02*
X152847000Y-80805000D01*
X152847000Y-83405000D02*
X152847000Y-86005000D01*
%TO.C,R2*%
X143792000Y-96789000D02*
X144122000Y-96789000D01*
X141382000Y-90249000D02*
X141712000Y-90249000D01*
X144122000Y-90249000D02*
X143792000Y-90249000D01*
X141712000Y-96789000D02*
X141382000Y-96789000D01*
X144122000Y-96789000D02*
X144122000Y-90249000D01*
X141382000Y-96789000D02*
X141382000Y-90249000D01*
%TO.C,SW1*%
X149384000Y-101501000D02*
X149384000Y-102854333D01*
X148594000Y-101501000D02*
X148594000Y-105561000D01*
X151649000Y-98581000D02*
X151649000Y-108481000D01*
X148784000Y-101501000D02*
X148784000Y-102854333D01*
X149744000Y-101501000D02*
X149744000Y-102854333D01*
X149504000Y-101501000D02*
X149504000Y-102854333D01*
X151889000Y-98341000D02*
X150506000Y-98341000D01*
X151649000Y-98581000D02*
X146809000Y-98581000D01*
X151889000Y-98341000D02*
X151889000Y-99725000D01*
X148664000Y-101501000D02*
X148664000Y-102854333D01*
X149624000Y-101501000D02*
X149624000Y-102854333D01*
X146809000Y-98581000D02*
X146809000Y-108481000D01*
X148594000Y-105561000D02*
X149864000Y-105561000D01*
X149864000Y-102854333D02*
X148594000Y-102854333D01*
X149144000Y-101501000D02*
X149144000Y-102854333D01*
X149024000Y-101501000D02*
X149024000Y-102854333D01*
X149264000Y-101501000D02*
X149264000Y-102854333D01*
X151649000Y-108481000D02*
X146809000Y-108481000D01*
X149864000Y-101501000D02*
X148594000Y-101501000D01*
X149864000Y-105561000D02*
X149864000Y-101501000D01*
X148904000Y-101501000D02*
X148904000Y-102854333D01*
%TD*%
M02*
